<svg width="640" height="279" viewBox="0 0 640 279" xmlns="http://www.w3.org/2000/svg" xmlns:xlink="http://www.w3.org/1999/xlink"><title>Group 7</title><defs><path id="a" d="M36.5 0L73 59H0z"/><path id="c" d="M36.5 0L73 59H0z"/><path id="e" d="M46 0l46 74H0z"/><path id="g" d="M46 0l46 74H0z"/><path id="i" d="M76.5 0L153 123H0z"/><linearGradient x1="0%" y1="0%" y2="100%" id="k"><stop stop-color="#F3827C" offset="0%"/><stop stop-color="#F7A19A" offset="100%"/></linearGradient></defs><g fill="none" fill-rule="evenodd"><g opacity=".6" transform="translate(215 219)"><mask id="b" fill="#fff"><use xlink:href="#a"/></mask><use fill="#CBCBD1" xlink:href="#a"/><path fill="#E9E9EC" mask="url(#b)" d="M36.5-3.34h43.136v65.679H36.5z"/></g><g opacity=".7" transform="translate(482 219)"><mask id="d" fill="#fff"><use xlink:href="#c"/></mask><use fill="#CBCBD1" xlink:href="#c"/><path fill="#E9E9EC" mask="url(#d)" d="M36.5-3.34h43.136v65.679H36.5z"/></g><g opacity=".9" transform="translate(140 204)"><mask id="f" fill="#fff"><use xlink:href="#e"/></mask><use fill="#CBCBD1" xlink:href="#e"/><path fill="#E9E9EC" mask="url(#f)" d="M46-4.189h54.364v82.377H46z"/></g><g opacity=".6" transform="translate(410 204)"><mask id="h" fill="#fff"><use xlink:href="#g"/></mask><use fill="#CBCBD1" xlink:href="#g"/><path fill="#E9E9EC" mask="url(#h)" d="M46-4.189h54.364v82.377H46z"/></g><g transform="translate(274 155)"><mask id="j" fill="#fff"><use xlink:href="#i"/></mask><use fill="#CBCBD1" xlink:href="#i"/><path fill="#E9E9EC" mask="url(#j)" d="M76.5-6.962h90.409v136.925H76.5z"/></g><path fill="#4D515A" d="M392 160h12v118h-12z"/><path d="M220.998 277a.999.999 0 0 1 1.002 1c0 .552-.451 1-1.002 1H105.002a.999.999 0 0 1-1.002-1c0-.552.451-1 1.002-1h115.996zM295 277a1 1 0 1 1-.001 2h-65a1 1 0 1 1 0-2h65zm276.994 0a1 1 0 1 1 0 2h-267.99a1 1 0 1 1 0-2h267.99z" fill="#666"/><path fill="url(#k)" transform="rotate(30 109.842 714.056)" d="M69 19l43.301 25v50L69 119 25.699 94V44z"/><path stroke="#FFF" stroke-width="2" d="M419.84 95.438L442.683 135l-22.841 39.562H374.16L351.32 135l22.84-39.562z"/><text font-family="LucidaGrande, Lucida Grande" font-size="36" fill="#FFF" transform="translate(328 66)"><tspan x="35.854" y="81">404</tspan></text><g opacity=".502"><path d="M252.002 66H160h9.002C175.076 66 180 70.924 180 77c0 6.075-4.927 11-10.998 11H160h92.002-31C214.926 88 210 83.076 210 77c0-6.075 4.928-11 11.002-11h31zM138 44H10.998C4.928 44 0 48.925 0 55c0 6.076 4.924 11 10.998 11h254.004C271.072 66 276 61.075 276 55c0-6.076-4.924-11-10.998-11H138zm33.002-22H79h9.002C94.076 22 99 26.924 99 33c0 6.075-4.927 11-10.998 11H79h92.002-31C133.926 44 129 39.076 129 33c0-6.075 4.928-11 11.002-11h31zM41 11c0-6.075 4.928-11 10.998-11h132.004C190.076 0 195 4.924 195 11c0 6.075-4.928 11-10.998 11H51.998C45.924 22 41 17.076 41 11zm40 88c0-6.075 4.928-11 10.998-11h132.004C230.076 88 235 92.924 235 99c0 6.075-4.928 11-10.998 11H91.998C85.924 110 81 105.076 81 99z" fill="#DBDBE0"/><circle fill="#E2E2E2" cx="224" cy="11" r="11"/></g><path d="M635.002 66h-32C596.928 66 592 70.925 592 77c0 6.076 4.926 11 11.002 11h32H546h11.002C563.073 88 568 83.075 568 77c0-6.076-4.924-11-10.998-11H546h89.002zM538 55c0-6.075 4.92-11 11-11h80c6.075 0 11 4.924 11 11 0 6.075-4.92 11-11 11h-80c-6.075 0-11-4.924-11-11zm-32 44c0-6.075 4.928-11 11.002-11h90.996C614.074 88 619 92.924 619 99c0 6.075-4.928 11-11.002 11h-90.996C510.926 110 506 105.076 506 99z" opacity=".502" fill="#E2E2E2"/><circle fill="#DBDBE0" opacity=".502" cx="417" cy="44" r="11"/></g></svg>