<svg width="302" height="150" viewBox="0 0 302 150" xmlns="http://www.w3.org/2000/svg" xmlns:xlink="http://www.w3.org/1999/xlink"><title>Group 8</title><defs><path id="a" d="M96.429 27H172.5v57.857H96.429z"/><mask id="k" x="0" y="0" width="76.071" height="57.857" fill="#fff"><use xlink:href="#a"/></mask><path id="b" d="M111.107 82h157.5v42.857h-157.5z"/><mask id="l" x="0" y="0" width="157.5" height="42.857" fill="#fff"><use xlink:href="#b"/></mask><linearGradient x1="0%" y1="0%" y2="100%" id="m"><stop stop-color="#F3827C" offset="0%"/><stop stop-color="#F7A19A" offset="100%"/></linearGradient><rect id="c" width="87.857" height="23.571" rx="2"/><mask id="n" x="0" y="0" width="87.857" height="23.571" fill="#fff"><use xlink:href="#c"/></mask><rect id="d" width="87.857" height="23.571" rx="2"/><mask id="o" x="0" y="0" width="87.857" height="23.571" fill="#fff"><use xlink:href="#d"/></mask><rect id="e" width="87.857" height="23.571" rx="2"/><mask id="p" x="0" y="0" width="87.857" height="23.571" fill="#fff"><use xlink:href="#e"/></mask><rect id="f" width="87.857" height="23.571" rx="2"/><mask id="q" x="0" y="0" width="87.857" height="23.571" fill="#fff"><use xlink:href="#f"/></mask><rect id="g" width="87.857" height="23.571" rx="2"/><mask id="r" x="0" y="0" width="87.857" height="23.571" fill="#fff"><use xlink:href="#g"/></mask><rect id="h" width="87.857" height="23.571" rx="2"/><mask id="s" x="0" y="0" width="87.857" height="23.571" fill="#fff"><use xlink:href="#h"/></mask><rect id="i" x="37.147" y="24.064" width="115.806" height="75.951" rx="2"/><mask id="t" x="0" y="0" width="115.806" height="75.951" fill="#fff"><use xlink:href="#i"/></mask><path id="j" d="M42.411 29.327h105.278V94.75H42.411z"/><mask id="u" x="0" y="0" width="105.278" height="65.423" fill="#fff"><use xlink:href="#j"/></mask><linearGradient x1="50%" y1="0%" x2="50%" y2="100%" id="v"><stop stop-color="#F3847E" offset="0%"/><stop stop-color="#F69E97" offset="100%"/></linearGradient></defs><g transform="translate(1 -1)" fill="none" fill-rule="evenodd"><use stroke="#DBDBE0" mask="url(#k)" stroke-width="4" stroke-dasharray="3" fill="#F8F8F8" xlink:href="#a"/><use stroke="#DBDBE0" mask="url(#l)" stroke-width="4" stroke-dasharray="3" fill="#F8F8F8" xlink:href="#b"/><path d="M290.415 88.52c-.488-.254-1.281-.253-1.767 0l-.642.335c-.488.255-.807.022-.712-.53l.117-.68c.095-.547-.15-1.303-.554-1.693l-.497-.482c-.401-.387-.281-.766.261-.844l.718-.104c.546-.078 1.187-.542 1.436-1.044l.308-.619c.248-.498.647-.502.897 0l.307.619c.248.498.893.966 1.436 1.044l.718.104c.546.078.666.454.262.844l-.497.482c-.401.387-.65 1.141-.555 1.693l.118.68c.094.547-.227.784-.712.53l-.642-.335z" fill="#EEEEF5"/><path d="M279.643 58.857v11.015m5.637-5.658h-10.994" stroke="#EEEEF4" stroke-width="2.778"/><rect fill="url(#m)" transform="rotate(45 97.438 27.867)" x="78.438" y="8.867" width="38" height="38" rx="2"/><text font-family="PingFangSC-Semibold, PingFang SC" font-size="17" font-weight="500" fill="#FFF"><tspan x="83.2" y="33.143">500</tspan></text><g transform="translate(158.571 18.143)"><use stroke="#DBDBE0" mask="url(#n)" stroke-width="4" fill="#FFF" xlink:href="#c"/><path d="M79.286 8.036v7.576m-6.429-7.576v7.576m-6.428-7.576v7.576M60 8.036v7.576m-6.429-7.576v7.576" stroke="#DBDBE0" stroke-width="2" stroke-linecap="square"/><ellipse fill="#DBDBE0" cx="12.321" cy="12.321" rx="3.75" ry="3.75"/></g><g transform="translate(158.571 39.571)"><use stroke="#DBDBE0" mask="url(#o)" stroke-width="4" fill="#FFF" xlink:href="#d"/><path d="M79.286 8.036v7.576m-6.429-7.576v7.576m-6.428-7.576v7.576M60 8.036v7.576m-6.429-7.576v7.576" stroke="#DBDBE0" stroke-width="2" stroke-linecap="square"/><ellipse fill="#DBDBE0" cx="12.321" cy="12.321" rx="3.75" ry="3.75"/></g><g transform="translate(158.571 61)"><use stroke="#DBDBE0" mask="url(#p)" stroke-width="4" fill="#FFF" xlink:href="#e"/><path d="M79.286 8.036v7.576m-6.429-7.576v7.576m-6.428-7.576v7.576M60 8.036v7.576m-6.429-7.576v7.576" stroke="#DBDBE0" stroke-width="2" stroke-linecap="square"/><ellipse fill="#DBDBE0" cx="12.321" cy="12.321" rx="3.75" ry="3.75"/></g><g transform="translate(158.571 82.429)"><use stroke="#DBDBE0" mask="url(#q)" stroke-width="4" fill="#FFF" xlink:href="#f"/><path d="M79.286 8.036v7.576m-6.429-7.576v7.576m-6.428-7.576v7.576M60 8.036v7.576m-6.429-7.576v7.576" stroke="#DBDBE0" stroke-width="2" stroke-linecap="square"/><ellipse fill="#DBDBE0" cx="12.321" cy="12.321" rx="3.75" ry="3.75"/></g><g transform="translate(158.571 103.857)"><use stroke="#DBDBE0" mask="url(#r)" stroke-width="4" fill="#FFF" xlink:href="#g"/><path d="M79.286 8.036v7.576m-6.429-7.576v7.576m-6.428-7.576v7.576M60 8.036v7.576m-6.429-7.576v7.576" stroke="#DBDBE0" stroke-width="2" stroke-linecap="square"/><ellipse fill="#DBDBE0" cx="12.321" cy="12.321" rx="3.75" ry="3.75"/></g><g transform="translate(158.571 125.286)"><use stroke="#DBDBE0" mask="url(#s)" stroke-width="4" fill="#FFF" xlink:href="#h"/><path d="M79.286 8.036v7.576m-6.429-7.576v7.576m-6.428-7.576v7.576M60 8.036v7.576m-6.429-7.576v7.576" stroke="#DBDBE0" stroke-width="2" stroke-linecap="square"/><ellipse fill="#DBDBE0" cx="12.321" cy="12.321" rx="3.75" ry="3.75"/></g><path d="M299.585 137.39c-.06.404-.115.807-.179 1.21-.806 5.063-4.833 9.283-9.88 10.34-.62.13-1.254.206-1.881.307h-48.562c-.406-.06-.812-.114-1.216-.178-5.104-.802-9.353-4.8-10.415-9.809-.131-.617-.207-1.246-.31-1.87v-1.78c.046-.334.078-.67.14-1 .974-5.22 4.004-8.666 9.076-10.335.229-.076.324-.175.377-.402 1.428-6.049 7.557-9.835 13.648-8.424.311.072.458.016.639-.251 3.378-4.99 8.057-7.982 14.033-8.962.638-.104 1.285-.158 1.928-.236h2.289c.1.018.2.04.3.053.867.117 1.745.182 2.6.356 8.543 1.745 14.897 8.424 16.186 17.016.053.354.174.462.51.513 5.059.769 9.341 4.792 10.402 9.769.135.628.211 1.268.315 1.902v1.782z" stroke="#DBDBE0" stroke-width="2.3" fill="#F8F8F8"/><g transform="translate(.433 43.857)"><path d="M55.534 77.178c-.045.306-.087.612-.135.917-.61 3.836-3.663 7.034-7.487 7.835-.47.099-.95.156-1.426.233h-36.8c-.307-.045-.614-.087-.92-.135-3.868-.608-7.088-3.637-7.893-7.433-.1-.468-.157-.944-.234-1.417v-1.35c.034-.252.058-.507.105-.757.739-3.955 3.035-6.567 6.878-7.832.173-.057.245-.132.286-.304 1.082-4.584 5.726-7.453 10.342-6.384.236.055.347.013.484-.19 2.56-3.78 6.105-6.048 10.634-6.79.484-.08.974-.121 1.46-.18h1.735c.076.014.151.03.228.04.657.089 1.322.138 1.97.27 6.474 1.322 11.289 6.384 12.265 12.895.04.268.133.35.388.388 3.833.583 7.078 3.631 7.882 7.403.102.476.16.96.238 1.441v1.35z" stroke="#DBDBE0" stroke-width="2.3" fill="#F8F8F8"/><path d="M24.194 45.947c-.487-.255-1.28-.254-1.766 0l-.642.335c-.488.255-.808.021-.712-.53l.117-.68c.095-.548-.15-1.303-.554-1.694l-.498-.48c-.4-.389-.28-.767.262-.845l.718-.104c.546-.079 1.187-.542 1.436-1.044l.308-.619c.247-.498.647-.502.897 0l.307.619c.248.498.893.966 1.436 1.044l.718.104c.545.078.666.453.262.844l-.498.481c-.4.388-.65 1.142-.554 1.694l.118.68c.094.547-.227.783-.712.53l-.643-.335z" fill="#EEEEF5"/><use stroke="#DBDBE0" mask="url(#t)" stroke-width="4" fill="#FFF" xlink:href="#i"/><path d="M37.5 13.691v5.358M30 16.906l4.286 5.357m-7.5 3.451h5.357" stroke="#F58F89" stroke-width="2"/><use stroke="#DBDBE0" mask="url(#u)" stroke-width="4" fill="#FFF" xlink:href="#j"/><circle fill="url(#v)" cx="69.067" cy="51.643" r="14.5"/><text font-family="PingFangSC-Semibold, PingFang SC" font-size="20" font-weight="500" fill="#FFF"><tspan x="64.067" y="49.143">！</tspan></text><path fill="#FFF" d="M26.619 97.758h138.366v6.768H26.619z"/><path d="M161.588 97.395H29.437a3.518 3.518 0 0 0-3.515 3.521 3.518 3.518 0 0 0 3.515 3.522h132.151a3.519 3.519 0 0 0 3.515-3.522 3.519 3.519 0 0 0-3.515-3.521z" stroke="#DBDBE0" stroke-width="2"/><path d="M117.049 100.916H73.976a1.764 1.764 0 0 1-1.757-1.761c0-.968.79-1.76 1.757-1.76h43.073c.966 0 1.758.792 1.758 1.76 0 .97-.792 1.761-1.758 1.761z" stroke="#DBDBE0" stroke-width="2"/><path d="M91.907 42.857h21.672M91.907 63.631h33.145M91.907 53.413h46.283" stroke="#DBDBE0" stroke-width="2.778"/><path d="M14.158 15.534V26.55m5.498-5.509H8.66" stroke="#EEEEF4" stroke-width="2.778"/><path d="M122.873 36.847v6.594m2.823-3.586h-6.582" stroke="#F6F6F8" stroke-width="2.778"/><path d="M119.526.015v6.594m3.291-3.297h-6.583" stroke="#EDEDF4" stroke-width="2.778"/><path d="M56.05 83.806a2.846 2.846 0 0 1-2.834-2.84v-5.679a2.846 2.846 0 0 1 2.835-2.84h78.923a2.846 2.846 0 0 1 2.835 2.84v5.679a2.846 2.846 0 0 1-2.835 2.84H56.051z" fill="#EDEDF4"/></g><path d="M62.692 63.578c-.487-.255-1.28-.254-1.766 0l-.642.335c-.488.254-.808.021-.712-.53l.117-.68c.095-.548-.15-1.303-.554-1.694l-.498-.481c-.4-.388-.28-.766.262-.845l.718-.103c.546-.079 1.187-.543 1.436-1.045l.308-.618c.247-.498.647-.502.897 0l.307.618c.248.499.893.967 1.436 1.045l.718.103c.545.079.666.454.262.845l-.498.481c-.4.388-.65 1.142-.554 1.694l.118.68c.094.547-.227.783-.712.53l-.643-.335z" fill="#EEEEF5"/></g></svg>