<?xml version="1.0" standalone="no"?>
<!DOCTYPE svg PUBLIC "-//W3C//DTD SVG 1.1//EN" "http://www.w3.org/Graphics/SVG/1.1/DTD/svg11.dtd" >
<svg xmlns="http://www.w3.org/2000/svg">
<metadata>
Created by FontForge 20120731 at Tue Mar 14 10:23:04 2017
 By admin
</metadata>
<defs>
<font id="cl" horiz-adv-x="1024" >
  <font-face 
    font-family="cl"
    font-weight="500"
    font-stretch="normal"
    units-per-em="1024"
    panose-1="2 0 6 3 0 0 0 0 0 0"
    ascent="896"
    descent="-128"
    x-height="792"
    bbox="0 -128 2421 896"
    underline-thickness="0"
    underline-position="0"
    unicode-range="U+0078-E98F"
  />
<missing-glyph 
 />
    <glyph glyph-name=".notdef" 
 />
    <glyph glyph-name=".notdef" 
 />
    <glyph glyph-name=".null" horiz-adv-x="0" 
 />
    <glyph glyph-name="nonmarkingreturn" horiz-adv-x="341" 
 />
    <glyph glyph-name="x" unicode="x" horiz-adv-x="1001" 
d="M281 543q-27 -1 -53 -1h-83q-18 0 -36.5 -6t-32.5 -18.5t-23 -32t-9 -45.5v-76h912v41q0 16 -0.5 30t-0.5 18q0 13 -5 29t-17 29.5t-31.5 22.5t-49.5 9h-133v-97h-438v97zM955 310v-52q0 -23 0.5 -52t0.5 -58t-10.5 -47.5t-26 -30t-33 -16t-31.5 -4.5q-14 -1 -29.5 -0.5
t-29.5 0.5h-32l-45 128h-439l-44 -128h-29h-34q-20 0 -45 1q-25 0 -41 9.5t-25.5 23t-13.5 29.5t-4 30v167h911zM163 247q-12 0 -21 -8.5t-9 -21.5t9 -21.5t21 -8.5q13 0 22 8.5t9 21.5t-9 21.5t-22 8.5zM316 123q-8 -26 -14 -48q-5 -19 -10.5 -37t-7.5 -25t-3 -15t1 -14.5
t9.5 -10.5t21.5 -4h37h67h81h80h64h36q23 0 34 12t2 38q-5 13 -9.5 30.5t-9.5 34.5q-5 19 -11 39h-368zM336 498v228q0 11 2.5 23t10 21.5t20.5 15.5t34 6h188q31 0 51.5 -14.5t20.5 -52.5v-227h-327z" />
    <glyph glyph-name="add-c-o" unicode="&#xe601;" 
d="M511.5 830q-90.5 0 -173 -35.5t-142 -95t-94.5 -142t-35 -172.5t35 -172.5t94.5 -142t142 -95t173 -35.5t173 35.5t142 95t94.5 142t35 172.5t-35 172.5t-94.5 142t-142 95t-173 35.5zM511.5 -4q-105.5 0 -195.5 52t-142 141.5t-52 195t52 195.5t142 142t195.5 52
t195 -52t142 -142t52.5 -195.5t-52.5 -195t-142 -141.5t-195 -52zM678 413h-139v139q0 11 -8 19.5t-19.5 8.5t-19.5 -8.5t-8 -19.5v-139h-139q-12 0 -20 -8.5t-8 -20t8 -19.5t20 -8h139v-139q0 -11 8 -19.5t19.5 -8.5t19.5 8.5t8 19.5v139h139q12 0 20 8t8 19.5t-8 20
t-20 8.5z" />
    <glyph glyph-name="delete" unicode="&#xe61e;" 
d="M756 559h-20v-511h-67v511h-112v-511h-67v511h-112v-511h-68v511h-42h-92v-534q0 -37 27 -63t65 -26h488q38 0 65 26t27 63v534q0 2 -11 2t-36.5 -1t-44.5 -1v0zM892 720h-201v54q0 23 -31 40.5t-58 17.5h-180q-27 0 -58 -17.5t-31 -40.5v-54h-201q-19 0 -32 -13
t-13 -31.5t13 -32t32 -13.5h760q19 0 32 13.5t13 32t-13 31.5t-32 13v0zM602 720h-180v22h180v-22zM602 720z" />
    <glyph glyph-name="copy-c" unicode="&#xe64b;" 
d="M937 526q0 7 -5 12l-124 143q-6 6 -15 5h-406q-22 0 -37.5 -15.5t-15.5 -38.5v-638q0 -23 15.5 -38.5t37.5 -15.5h497q22 0 38 15.5t16 38.5v532h-1zM882 18q0 -7 -5 -12t-12 -5h-459q-6 0 -11 5t-5 12v590q0 7 5 12t11 5h345v-99q0 -20 14 -34.5t35 -14.5h82v-459z
M143 198v553q0 7 5 12.5t13 5.5h432q7 0 12 -5t5 -13v-30h61v53q0 23 -15.5 38.5t-37.5 15.5h-478q-22 0 -38 -15.5t-16 -38.5v-603q0 -22 16 -37.5t38 -15.5h159v62h-138q-8 0 -13 5t-5 13v0zM663 479h-55v-138h-138v-56h138v-138h56v138h138v56h-138v138h-1z" />
    <glyph glyph-name="pencil-s" unicode="&#xe77d;" 
d="M267 131l188 81l-115 114zM827 576l-119 123l-347 -342l124 -129zM926 723q-32 35 -69 62q-16 12 -32 12t-24 -6l-8 -6l-62 -62l126 -124q52 53 69 71q7 8 7 21.5t-4 22.5zM792 67q0 -7 -4.5 -11.5t-10.5 -4.5h-584q-6 0 -10.5 4.5t-4.5 11.5v578q0 7 4.5 11.5t10.5 4.5
h371l77 82h-527q-8 0 -13.5 -5.5t-5.5 -13.5v-736q0 -8 5.5 -13.5t13.5 -5.5h742q8 0 13.5 5.5t5.5 13.5v526l-83 -77v-370z" />
    <glyph glyph-name="del" unicode="&#xe654;" 
d="M480 612h64v-549h-64v549zM329 612h64v-549h-64v549zM631 612h64v-549h-64v549zM896 737h-172v41q0 23 -18.5 39t-45.5 16h-296q-27 0 -45.5 -16t-18.5 -39v-41h-177v-64h67v-675q0 -25 19 -43.5t45 -18.5h516q26 0 45 18.5t19 43.5v675h62v64v0zM364 769h296v-32h-296
v32zM771 0h-1l-516 -2v675h516l1 -673v0z" />
    <glyph glyph-name="treearrow-down" unicode="&#xe608;" 
d="M512 143l-392 392q-15 15 -15 35t15 35t35 15t35 -15l322 -322l322 322q15 15 35 15t35 -15t15 -35t-15 -35z" />
    <glyph glyph-name="shop" unicode="&#xe612;" 
d="M881 653h-740l-77 -201q0 -45 32.5 -77.5t78.5 -32.5q47 0 80 32t33 78q0 -45 32.5 -77.5t78.5 -32.5q47 0 80 32t33 78q0 -45 32.5 -77.5t78.5 -32.5q47 0 79.5 32t32.5 78q0 -45 33 -77.5t79 -32.5q47 0 80 32t33 78zM819 307v-256h-614v256h-26h-38v-269
q0 -17 15.5 -34t32.5 -17h644q17 0 33 17t16 34v269h-51h-12zM881 654v0v0zM192 704h640q16 0 27 11t11 27.5t-11 27.5t-27 11h-640q-16 0 -27 -11t-11 -27.5t11 -27.5t27 -11z" />
    <glyph glyph-name="close-c-o" unicode="&#xe625;" horiz-adv-x="1114" 
d="M716 503q-10 10 -24 10t-24 -10l-85 -85l-84 85q-10 10 -24.5 10t-24.5 -10t-10 -24.5t10 -24.5l85 -84l-85 -85q-10 -10 -10 -24t10 -24t24.5 -10t24.5 10l84 85l85 -85q10 -10 24 -10t24 10t10 24t-10 24l-85 85l85 84q10 10 10 24.5t-10 24.5v0zM583 796
q-116 0 -214 -57t-155.5 -155t-57.5 -214t57.5 -214.5t155.5 -155.5t214 -57t214.5 57t155.5 155.5t57 214.5t-57 214t-155.5 155t-214.5 57v0zM583 11q-97 0 -179.5 48t-130.5 130.5t-48 180t48 180t130.5 130.5t179.5 48t180 -48t130.5 -130.5t47.5 -180t-47.5 -180
t-130.5 -130.5t-180 -48v0zM583 11z" />
    <glyph glyph-name="close-c" unicode="&#xe66b;" 
d="M512 831q-91 0 -173.5 -35.5t-142.5 -95.5t-95.5 -142.5t-35.5 -173.5t35.5 -174t95.5 -143t142.5 -95t173.5 -35t174 35t143 95t95 143t35 174t-35 173.5t-95 142.5t-143 95.5t-174 35.5zM683 265q6 -5 6 -13t-6 -13l-26 -26q-5 -6 -13 -6t-13 6l-119 118l-118 -118
q-6 -6 -13.5 -6t-13.5 6l-26 26q-6 5 -6 13t6 13l118 119l-118 118q-6 6 -6 13.5t6 13.5l26 26q6 6 13.5 6t13.5 -6l118 -118l119 118q5 6 13 6t13 -6l26 -26q6 -6 6 -13.5t-6 -13.5l-118 -118z" />
    <glyph glyph-name="refresh" unicode="&#xe62f;" 
d="M886.5 241q-11.5 5 -28.5 -1.5t-21 -17.5q-38 -96 -122 -153.5t-187 -57.5q-90 0 -167 45t-121.5 122t-44.5 168t44.5 168t121.5 122t167 45q95 0 176 -51l3 -1l-88 -32q-11 -4 -17 -19t-2 -26q3 -9 13.5 -16t19.5 -7q10 0 14 1l160 71q12 5 17.5 16t0.5 23l-57 159
q-5 14 -16 24.5t-26 8.5q-12 -2 -19.5 -15.5t-3.5 -25.5l32 -88q-97 59 -211 59q-111 0 -205.5 -55.5t-149.5 -150.5t-55 -207t55 -207t149.5 -150t205.5 -55q127 0 230.5 70.5t150.5 189.5q5 11 -1 25t-17.5 19z" />
    <glyph glyph-name="calendar" unicode="&#xe646;" 
d="M377 737v-133q0 -10 -8 -17.5t-19 -7.5h-1q-11 0 -19 7.5t-8 17.5v133q0 11 8 18.5t19 7.5h1q11 0 19 -7.5t8 -18.5zM671 763h-1q-11 0 -19 -7.5t-8 -18.5v-133q0 -10 8 -17.5t19 -7.5h1q11 0 19 7.5t8 17.5v133q0 11 -8 18.5t-19 7.5zM611 643v52h-198v-52h198zM886 621
v-541q0 -31 -22 -53t-53 -22h-598q-31 0 -53 22t-22 53v541q0 31 22 52.5t53 21.5h78v-52h-74q-11 0 -19 -7.5t-8 -18.5v-93h644v93q0 11 -8 18.5t-19 7.5h-74v52h78q31 0 53 -21.5t22 -52.5zM834 84v388h-644v-388q0 -11 8 -18.5t19 -7.5h590q11 0 19 7.5t8 18.5zM261 309
h109v109h-109v-109zM458 309h109v109h-109v-109zM261 113h109v108h-109v-108zM458 113h109v108h-109v-108zM654 418v-109h109v109h-109zM654 221v-108h109v108h-109z" />
    <glyph glyph-name="suspend" unicode="&#xe672;" 
d="M334 53q0 -37 -27.5 -64t-66.5 -27t-66.5 27t-27.5 64v662q0 37 27.5 64t66.5 27t66.5 -27t27.5 -64v-662zM822 53q0 -37 -27.5 -64t-66 -27t-66 27t-27.5 64v662q0 37 27.5 64t66 27t66 -27t27.5 -64v-662z" />
    <glyph glyph-name="windows" unicode="&#xe65d;" 
d="M78 758v-601q2 -3 4.5 -15.5t8.5 -20.5q11 -17 25.5 -25.5t24.5 -10t29.5 -2t28.5 -1.5q2 -12 2 -26.5t0.5 -21.5t5 -17.5t14.5 -21.5q15 -16 32 -21.5t49 -5.5h431q1 0 44.5 -0.5t73 0.5t40.5 5q21 8 32 21q16 19 19 34t3 52v540q0 50 -32 76q-12 11 -24.5 14t-33 3
t-31.5 1q0 11 -0.5 23t-1 22t-6.5 22t-17 24q-12 12 -28 17.5t-32 5.5h-34q-74 -1 -233 0.5t-231 -0.5q-6 0 -34 0.5t-47 -0.5t-30 -6q-14 -5 -24 -14.5t-13.5 -15.5t-8 -18.5t-6.5 -15.5v0v0zM262 83q51 0 193 -0.5t192 0.5q6 0 37 -1t52 0.5t34 5.5q22 7 37 27t17 48
q1 22 0 202.5t0 180.5h59q1 -5 1 -63v-122v-69q1 -11 0.5 -127t-0.5 -127h-623zM139 650l1 10l448 1q21 -1 87.5 -0.5t86.5 -0.5l1 -176q-1 -22 -0.5 -86.5t-0.5 -85.5q0 -19 1 -81t-1 -79h-435q-156 -2 -187 1zM434 544q-2 -1 -10 -3q-16 -5 -27 -12q-5 3 -11 10.5t-12 12
t-16 4.5q-8 0 -14 -6l-19 -20q-6 -6 -6 -18q0 -8 13 -21l14 -14q-4 -5 -9.5 -18t-5.5 -18h-13h-14.5t-10.5 -2t-9 -6q-6 -7 -6 -13v-30q0 -6 6 -13q3 -4 9 -6t10 -2.5t14.5 0t13.5 0.5q0 -6 5.5 -19t9.5 -18q-4 -5 -11.5 -11t-11.5 -12t-4 -16q0 -8 15 -24q2 -1 5 -4.5
t4 -4.5t3.5 -2.5t4.5 -2t4.5 -1t6.5 -0.5q9 0 21.5 13t13.5 14q21 -14 37 -15q0 -34 1 -36q2 -7 7.5 -12t12.5 -5h30q5 0 12 6q5 3 7 9t2 10v14.5v13.5q16 1 36 15q5 -4 11 -11.5t12.5 -11.5t16.5 -4q8 0 13 6l20 19q6 6 6 18q0 9 -13.5 21.5t-13.5 13.5q13 20 15 37
q33 0 35 1q7 2 11 7q6 7 6 13v30q0 6 -5 12t-12 8q-2 1 -35 1q-1 4 -7 19q-4 10 -8 17q3 5 10.5 11t12 12.5t4.5 16.5q0 7 -6 13l-20 20q-5 6 -18 6q-8 0 -21 -13.5t-14 -13.5q-5 3 -18 8.5t-18 6.5v12.5v14t-2 10.5t-6 9q-7 6 -13 6h-30q-7 0 -12.5 -5t-7.5 -12
q-1 -2 -1 -35v0zM469.5 498q38.5 0 66 -27.5t27.5 -66t-27.5 -65.5t-66 -27t-65.5 27t-27 65.5t27 66t65.5 27.5z" />
    <glyph glyph-name="kttx" unicode="&#xe623;" 
d="M807.5 -64q-63.5 0 -107.5 45l-189 189q-52 -17 -106 -17q-92 0 -170 45t-123.5 123t-45.5 170q0 70 28 134l6 14q1 2 2 3q2 4 6 8q9 10 23 10q11 0 20 -7v0q1 0 4 -3l169 -169l91 91l-173 173q-1 1 -2 3q-7 8 -6.5 19.5t8.5 19.5q3 3 7 5l22 10q64 27 134 27
q92 0 169.5 -45t123 -123t45.5 -170q0 -54 -17 -106l189 -189q45 -45 45 -108t-44.5 -107.5t-108 -44.5zM525 247q5 0 9 -4l214 -214q25 -25 59.5 -25t59.5 24.5t25 59.5t-25 60l-214 214q-6 5 -3 13l9 25q16 44 16 91q0 112 -79.5 191t-190.5 79q-37 0 -72 -10l170 -170
q3 -4 3 -9t-4 -9l-169 -170q-4 -4 -9.5 -4t-8.5 4l-170 170q-10 -35 -10 -72q0 -112 79 -191t191 -79q47 0 90 16l26 9q2 1 4 1z" />
    <glyph glyph-name="cloud-create" unicode="&#xe64e;" 
d="M226 122v-9h429v32h-429v-23zM98 257q0 79 56 135t136 56v0q2 17 6 33q20 89 92 147.5t165 58.5q99 0 173 -64t88 -159h32q-14 108 -97.5 181t-195.5 73q-107 0 -189 -68.5t-101 -171.5q-84 -10 -140.5 -73t-56.5 -148q0 -35 12.5 -62t30 -42t40.5 -24.5t41.5 -12.5
t35.5 -3v9v23q-9 0 -20.5 1.5t-32 8t-36 17.5t-27.5 33t-12 52v0zM325 463h15q14 73 71 123t133 53v15q-82 -3 -143.5 -57t-75.5 -134zM830 304v128h-127v-128h-127v-127h127v-127h127v127h128v127h-128zM926 209h-127v-128h-64v128h-127v64h127v127h64v-127h127v-64z" />
    <glyph glyph-name="menu" unicode="&#xe61b;" 
d="M879 457h-734q-29 0 -49.5 -21.5t-20.5 -51.5t20.5 -51.5t49.5 -21.5h734q29 0 49.5 21.5t20.5 51.5t-20.5 51.5t-49.5 21.5zM879 748h-734q-29 0 -49.5 -21.5t-20.5 -51.5t20.5 -51.5t49.5 -21.5h734q29 0 49.5 21.5t20.5 51.5t-20.5 51.5t-49.5 21.5zM879 166h-734
q-29 0 -49.5 -21.5t-20.5 -51.5t20.5 -51.5t49.5 -21.5h734q29 0 49.5 21.5t20.5 51.5t-20.5 51.5t-49.5 21.5z" />
    <glyph glyph-name="arrow-retract" unicode="&#xe626;" 
d="M151 386q0 17 12.5 29.5t29.5 12.5h725q17 0 29.5 -12.5t12.5 -30t-12.5 -29.5t-29.5 -12h-725q-17 0 -29.5 12.5t-12.5 29.5zM451 686q0 -17 -12 -30l-274 -272l274 -274q12 -12 12 -29.5t-12.5 -29.5t-29.5 -12t-30 12l-303 303q-12 12 -12 30v0q0 17 12 29l303 303
q13 12 30 12t29.5 -12.5t12.5 -29.5z" />
    <glyph glyph-name="sign" unicode="&#xe67a;" 
d="M771 -63h-575q-40 0 -68 28t-28 68v639q0 40 28 68t68 28h448q13 0 22.5 -9t9.5 -22.5t-9.5 -23t-22.5 -9.5h-448q-13 0 -22.5 -9t-9.5 -23v-639q0 -13 9.5 -22.5t22.5 -9.5h575q14 0 23 9.5t9 22.5v511q0 14 9.5 23t23 9t22.5 -9t9 -23v-511q0 -40 -28 -68t-68 -28v0z
M583.5 449q-13.5 0 -22.5 9t-9 22.5t9 22.5l318 318q9 9 22.5 9t22.5 -9.5t9 -22.5t-9 -22l-318 -318q-9 -9 -22.5 -9zM452 449h-192q-13 0 -22.5 9t-9.5 22.5t9.5 22.5t22.5 9h192q13 0 22.5 -9t9.5 -22.5t-9.5 -22.5t-22.5 -9zM644 257h-384q-13 0 -22.5 9t-9.5 22.5
t9.5 23t22.5 9.5h384q13 0 22.5 -9.5t9.5 -23t-9.5 -22.5t-22.5 -9z" />
    <glyph glyph-name="gridcaretarrowup" unicode="&#xe636;" 
d="M512 625l392 -392q15 -15 15 -35t-15 -35t-35 -15t-35 15l-322 322l-322 -322q-15 -15 -35 -15t-35 15t-15 35t15 35z" />
    <glyph glyph-name="cpu" unicode="&#xe64a;" 
d="M260 827v-4v-71q0 -16 11 -26.5t26 -10.5t26 10.5t11 26.5v71v4h-74zM406 827q-1 -2 -1 -4v-71q0 -16 11 -26.5t26.5 -10.5t26 10.5t10.5 26.5v71v4h-73zM551 827v-4v-71q0 -16 11 -26.5t26 -10.5t26 10.5t11 26.5v71v4h-74zM697 827q-1 -2 -1 -4v-71q0 -16 11 -26.5
t26 -10.5t25.5 10.5t10.5 26.5v71v4h-72zM294 680q-30 0 -51.5 -21.5t-21.5 -51.5v-438q0 -31 21.5 -52t51.5 -21h439q30 0 51.5 21t21.5 52v438q0 30 -21.5 51.5t-51.5 21.5h-439zM77 643v-73v0h72q15 0 26 10.5t11 26t-11 26t-26 10.5h-72v0zM880 643q-15 0 -26 -10.5
t-11 -26t11 -26t26 -10.5h69v73h-69zM293 607h437v-434h-437v434zM321 579v-378h381v378h-381zM880 498q-15 0 -26 -10.5t-11 -26t11 -26t26 -10.5h69v73h-69zM77 497v-73h71q16 0 26.5 10.5t10.5 26t-10.5 26t-26.5 10.5h-71zM880 353q-15 0 -26 -11t-11 -26t11 -26t26 -11
h69v74h-69zM77 351v-74h71q16 0 26.5 11t10.5 26.5t-10.5 26t-26.5 10.5h-71zM77 207v-73v0h72q15 0 26 10.5t11 26t-11 26t-26 10.5h-72v0zM880 207q-15 0 -26 -10.5t-11 -26t11 -26t26 -10.5h69v73h-69zM295 61q-15 0 -26 -11t-11 -26v-69h73v69q0 15 -10.5 26t-25.5 11z
M440 61q-15 0 -26 -11t-11 -26v-69h74v69q0 15 -11 26t-26 11zM586 61q-15 0 -25.5 -11t-10.5 -26v-69h73v69q0 15 -11 26t-26 11zM731 61q-15 0 -25.5 -11t-10.5 -26v-69h73v69q0 15 -11 26t-26 11z" />
    <glyph glyph-name="provider" unicode="&#xe736;" 
d="M911 166q-113 48 -264 69l65 -138l-94 -187q141 6 273 24q21 3 39.5 21.5t21.5 39.5q8 66 12 94q0 22 -15 45t-38 32v0zM911 166zM370 239q-133 -18 -260 -69q-21 -9 -35 -32t-14 -45q8 -66 12 -94q3 -21 20 -38t41 -23q136 -18 268 -24l-93 187zM370 239zM545 194h-73
l-37 -40l37 -90l-25 -154h122l-24 154l41 90zM545 194zM634 353q15 9 26.5 24.5t14.5 28.5q2 10 4 32.5t4 32.5q4 -4 12 -4q9 0 15 5t6 11l12 102q0 9 -5 14.5t-12 5.5q-8 0 -12 -4q2 11 4 29t4 28q0 3 1.5 19.5t1 29.5t-3 30.5t-11.5 34t-24 29.5q-38 35 -98.5 48.5
t-119.5 1.5t-95 -46q-14 -13 -23 -29t-11.5 -34.5t-3.5 -30.5t0 -29.5t1 -19.5q2 -10 4 -28t4 -29q-2 0 -6 2.5t-6 2.5q-8 0 -12 -6.5t-4 -14.5l8 -106q0 -8 6.5 -12t13.5 -4q2 0 6 2t6 2q9 -41 9 -65q0 -26 40 -53q9 -66 12 -93q0 -10 15.5 -22t33.5 -15q56 -6 118 0
q18 3 33.5 15t15.5 22q9 36 16 93v0zM634 353z" />
    <glyph glyph-name="reduce-c-o" unicode="&#xe637;" 
d="M512 -53q-89 0 -170 34.5t-139.5 93t-93 139.5t-34.5 170t34.5 170t93 139.5t139.5 93t170 34.5t170 -34.5t139.5 -93t93 -139.5t34.5 -170t-34.5 -170t-93 -139.5t-139.5 -93t-170 -34.5zM512 766q-104 0 -192 -51t-139 -139t-51 -192t51 -192t139 -139t192 -51t192 51
t139 139t51 192t-51 192t-139 139t-192 51zM266 384v0q0 11 8 19t20 8h436q12 0 20 -8t8 -19v0q0 -11 -8 -19t-20 -8h-436q-12 0 -20 8t-8 19z" />
    <glyph glyph-name="access" unicode="&#xe62e;" 
d="M512 -106q-42 0 -97 24t-109 66.5t-100 95t-74.5 116.5t-28.5 123v413h41q8 0 27.5 1.5t67.5 11.5t90 27q96 39 159 84l24 18l24 -18q5 -3 20 -13t55.5 -31.5t83.5 -39.5q42 -17 90 -27t67.5 -11.5t27.5 -1.5h41v-413q0 -59 -28.5 -123t-74.5 -116.5t-100 -95t-109 -66.5
t-97 -24v0zM186 653v-333q0 -57 37.5 -121t90 -111.5t107.5 -79.5t90.5 -32t91 32t108 79.5t90 111.5t37.5 121v333q-93 10 -174 43q-83 33 -152 77q-69 -43 -152 -77q-81 -33 -174 -43v0zM490 165l-174 148l54 62l111 -94l212 243l62 -54zM490 165z" />
    <glyph glyph-name="plus" unicode="&#xe763;" 
d="M449 824h126v-880h-126v880zM72 447h880v-126h-880v126z" />
    <glyph glyph-name="list-s-o" unicode="&#xe746;" 
d="M62 -66v886h886v-886h-886zM892 764h-774v-774h774v774zM726 543h-442v55h442v-55zM726 377h-442v56h442v-56zM726 211h-442v56h442v-56z" />
    <glyph glyph-name="bk-conf" unicode="&#xe617;" 
d="M478 426h-408v427h408v-427zM128 484h292v311h-292v-311zM478 -59h-408v427h408v-427zM128 -1h292v311h-292v-311zM944 -59h-408v427h408v-427zM594 -1h292v311h-292v-311zM933 607l19 3l-19 123l-18 -2q-12 -2 -23 2q-17 7 -24.5 24t-0.5 34l7 17l-115 45l-7 -17
q-6 -17 -23 -24.5t-34 -0.5q-11 4 -18 13l-12 15l-97 -79l12 -15q16 -20 6.5 -44t-34.5 -27l-19 -3l19 -124l18 3q12 1 23 -3q17 -7 24 -23.5t1 -34.5l-7 -17l115 -45l6 17q7 18 24 25t34 1q11 -5 18 -14l12 -14l97 78l-12 15q-16 20 -6.5 44t34.5 28zM863.5 593
q-12.5 -33 2.5 -66l-42 -34q-10 8 -21 12q-27 10 -54 1.5t-43 -31.5l-49 19q4 28 -10 53t-41 35q-11 4 -23 5l-7 54q33 14 45.5 47t-2.5 65l42 34q9 -7 20 -11q28 -11 54.5 -2.5t42.5 31.5l49 -19q-4 -28 10.5 -52.5t40.5 -35.5q12 -4 23 -5l8 -54q-33 -13 -45.5 -46z
M742 746q-44 0 -75.5 -31.5t-31.5 -75.5t31.5 -75.5t75.5 -31.5t75 31.5t31 75.5t-31 75.5t-75 31.5zM742 571q-28 0 -48 20t-20 48t20 48t48 20t48 -20t20 -48t-20 -48t-48 -20z" />
    <glyph glyph-name="commodity" unicode="&#xe6cc;" 
d="M861 834h-195q-12 0 -21 -8.5t-9 -20.5t9 -21t21 -9h183q21 0 36.5 -15t15.5 -37v-673q0 -22 -15.5 -37.5t-36.5 -15.5h-674q-22 0 -37 15.5t-15 37.5v673q0 22 15 37t37 15h158q12 0 20.5 9t8.5 21t-8.5 20.5t-20.5 8.5h-171q-41 0 -69.5 -28.5t-28.5 -69.5v-699
q0 -41 28.5 -69.5t69.5 -28.5h699q41 0 69.5 28.5t28.5 69.5v699q0 41 -28.5 69.5t-69.5 28.5zM811 610q0 20 -14.5 34.5t-35 14.5t-35 -14.5t-14.5 -34.5q0 -25 20 -40q-17 -76 -78.5 -125.5t-141 -49.5t-141 49.5t-77.5 126.5q19 14 19 39q0 20 -14.5 34.5t-35 14.5
t-35 -14.5t-14.5 -34.5q0 -28 24 -43l4 -2q16 -98 92.5 -163.5t178 -65.5t178 65.5t92.5 163.5q3 1 4 3q24 14 24 42z" />
    <glyph glyph-name="restar" unicode="&#xe655;" 
d="M295 570l26 -34q17 -21 41 -15q10 2 17 8q11 8 14 21l50 201q5 19 -8 36q-12 17 -34 17h-205q-14 0 -25 -9q-8 -7 -11 -14q-11 -23 5 -44l26 -33zM867 608v0q-18 27 -51 27q-24 0 -42 -18t-18 -42q0 -19 11 -35v0q57 -90 45 -194q-13 -107 -91.5 -181.5t-185.5 -81.5
q-86 -6 -160 33t-117.5 110.5t-43.5 155.5q0 112 75 197l7 -8l26 -34q16 -21 40 -16q11 2 18 8q10 9 13 22l50 200q6 20 -7 37t-34 17l-206 -1q-14 0 -25 -9q-8 -7 -11 -14q-11 -23 5 -44l26 -33l22 -29q-58 -60 -89.5 -139t-28.5 -167q3 -107 57 -198.5t144.5 -147
t197.5 -60.5q88 -5 169.5 26.5t140.5 88.5t94.5 136.5t35.5 167.5q0 72 -21.5 131t-45.5 95z" />
    <glyph glyph-name="clouddeploy" unicode="&#xe701;" 
d="M256 306v1l511 -1q59 0 100 41.5t41 100.5q0 54 -36.5 94.5t-89.5 46.5v13q0 89 -63 152t-153 63q-68 0 -127 -44q-40 -29 -64 -72q-27 14 -57 14q-49 0 -87 -42q-24 -27 -32 -63q-42 -16 -69 -52q-31 -42 -31 -94q0 -65 46 -111.5t111 -46.5v0v0zM235 582h1q8 2 9 10
q6 32 30 57t55 25q27 0 49 -15q2 -2 5 -3v0q13 -5 19 8q22 47 66 76.5t93 29.5q71 0 121 -50t50 -121q0 -12 -0.5 -25.5t12.5 -15.5q2 -1 4 -1v0q42 0 72 -30t30 -72q0 -40 -28 -69.5t-68 -31.5v0h-492q-45 3 -76 36.5t-31 79.5q0 38 22 69t57 43v0v0zM235 582zM953 71v146
h-66h-804v-192l870 1v45v0zM911 70h-783v102h783v-102v0zM911 70zM186 124h44v-42h-44v42zM186 124zM275 125h594v-43h-594v43zM275 125z" />
    <glyph glyph-name="pass-o" unicode="&#xe6a7;" 
d="M349 428q-9 10 -22.5 10t-23 -9.5t-9.5 -23t9 -22.5l135 -138q9 -10 23 -10v0q13 0 23 9l257 254q9 10 9.5 23.5t-9 23t-23 9.5t-23.5 -9l-234 -231zM876 707l-353 122q-11 4 -22 0l-353 -122q-22 -7 -22 -30v-376q2 -45 23.5 -89.5t52 -78t72 -66t76 -53t72.5 -39.5
t53 -25.5t25 -10.5q6 -2 12 -2t12 2q10 4 25 10.5t53 25.5t72.5 39.5t76 53t72 66.5t52 78.5t23.5 89.5v375q0 23 -22 30zM833 304q-2 -45 -31.5 -90t-67 -77t-87.5 -62.5t-79.5 -44.5t-55.5 -25q-34 13 -71 32t-82 49t-80.5 62t-60.5 73t-27 81v351l321 111l321 -111v-349z
" />
    <glyph glyph-name="arrow-down" unicode="&#xe609;" 
d="M512 230l-250 250q-9 10 -9 22.5t9.5 22t22.5 9.5t22 -9l205 -205l205 205q9 9 22 9t22.5 -9.5t9.5 -22t-9 -22.5z" />
    <glyph glyph-name="arrow-right" unicode="&#xe611;" 
d="M753 384l-392 -392q-15 -15 -35 -15t-35 15t-15 35t15 35l322 322l-322 322q-15 15 -15 35t15 35t35 15t35 -15z" />
    <glyph glyph-name="arrow-left" unicode="&#xe613;" 
d="M271 384l392 392q15 15 35 15t35 -15t15 -35t-15 -35l-322 -322l322 -322q15 -15 15 -35t-15 -35t-35 -15t-35 15z" />
    <glyph glyph-name="reduce-c" unicode="&#xe6cb;" 
d="M515.5 830q-90.5 0 -173.5 -35.5t-142.5 -95.5t-95 -142.5t-35.5 -173.5t35.5 -173.5t95 -142.5t142.5 -95.5t173.5 -35.5t173.5 35.5t142.5 95.5t95 142.5t35.5 173.5t-35.5 173.5t-95 142.5t-142.5 95.5t-173.5 35.5zM660 352h-289q-12 0 -21 9t-9 22t9 21.5t21 8.5
h289q12 0 21 -8.5t9 -21.5t-9 -22t-21 -9z" />
    <glyph glyph-name="mobile" unicode="&#xe6e0;" 
d="M672 819h-319q-30 0 -51.5 -21t-21.5 -51v-726q0 -30 21.5 -51.5t51.5 -21.5h319q30 0 51.5 21.5t21.5 51.5v726q0 30 -21.5 51t-51.5 21zM469 761h87q6 0 10 -4t4 -10t-4 -10.5t-10 -4.5h-87q-6 0 -10.5 4.5t-4.5 10.5t4.5 10t10.5 4zM512 -23q-18 0 -30.5 13t-12.5 31
t12.5 30.5t30.5 12.5t31 -12.5t13 -30.5t-13 -31t-31 -13zM716 93h-407v581h407v-581z" />
    <glyph glyph-name="play-o" unicode="&#xe6ec;" 
d="M512 -25q-111 0 -205.5 54.5t-149 149t-54.5 205.5t54.5 205.5t149 149t205.5 54.5t205.5 -54.5t149 -149t54.5 -205.5t-54.5 -205.5t-149 -149t-205.5 -54.5zM512 700q-131 0 -223.5 -92.5t-92.5 -223.5t92.5 -223.5t223.5 -92.5t223.5 92.5t92.5 223.5t-92.5 223.5
t-223.5 92.5zM396 252q0 -8 6.5 -12t13.5 -1l264 132q8 4 8 13t-8 13l-264 132q-7 3 -13.5 -1t-6.5 -12v-264v0z" />
    <glyph glyph-name="navmenu-light" unicode="&#xe6fd;" 
d="M62 711v-82h900v82h-900zM62 343h900v82h-900v-82zM62 57h900v82h-900v-82z" />
    <glyph glyph-name="file-o" unicode="&#xe739;" 
d="M875.5 567q-11.5 28 -28.5 44l-183 183q-16 17 -44 28.5t-52 11.5h-375q-23 0 -39.5 -16.5t-16.5 -39.5v-788q0 -23 16.5 -39.5t39.5 -16.5h638q23 0 39.5 16.5t16.5 39.5v525q0 24 -11.5 52zM587 754q17 -6 24 -13l183 -183q7 -7 13 -24h-220v220zM812 9h-600v750h300
v-244q0 -23 16.5 -39.5t39.5 -16.5h244v-450v0zM718 234h-412q-8 0 -13.5 -5.5t-5.5 -13.5v-37q0 -8 5.5 -13.5t13.5 -5.5h412q8 0 13.5 5.5t5.5 13.5v37q0 8 -5.5 13.5t-13.5 5.5zM292.5 378.5q-5.5 -5.5 -5.5 -13.5v-37q0 -8 5.5 -13.5t13.5 -5.5h412q8 0 13.5 5.5
t5.5 13.5v37q0 8 -5.5 13.5t-13.5 5.5h-412q-8 0 -13.5 -5.5z" />
    <glyph glyph-name="log" unicode="&#xe661;" 
d="M803 734h-134v65q0 13 -9.5 22.5t-23 9.5t-23 -9.5t-9.5 -22.5v-65h-184v65q0 13 -9.5 22.5t-23 9.5t-23 -9.5t-9.5 -22.5v-65h-134q-32 0 -54.5 -22.5t-22.5 -54.5v-643q0 -32 22.5 -54.5t54.5 -22.5h582q32 0 54.5 22.5t22.5 54.5v643q0 32 -22.5 54.5t-54.5 22.5z
M815 14q0 -5 -3.5 -8.5t-8.5 -3.5h-582q-5 0 -8.5 3.5t-3.5 8.5v643q0 5 3.5 8.5t8.5 3.5h134v-64q0 -13 9.5 -22.5t23 -9.5t23 9.5t9.5 22.5v64h184v-64q0 -13 9.5 -22.5t23 -9.5t23 9.5t9.5 22.5v64h134q5 0 8.5 -3.5t3.5 -8.5v-643zM716 455h-408q-14 0 -23.5 -9.5
t-9.5 -23t9.5 -23t23.5 -9.5h408q14 0 23.5 9.5t9.5 23t-9.5 23t-23.5 9.5zM716 265h-408q-14 0 -23.5 -9.5t-9.5 -23t9.5 -23t23.5 -9.5h408q14 0 23.5 9.5t9.5 23t-9.5 23t-23.5 9.5z" />
    <glyph glyph-name="disk" unicode="&#xe6d2;" 
d="M911 35q0 -16 -11 -27t-26 -11h-724q-15 0 -26 11t-11 27v698q0 16 11 27t26 11h112v-300q0 -30 21.5 -52t51.5 -23h329q30 1 51.5 23t21.5 52v300h25q15 0 26 -11v0l112 -112q11 -11 11 -27v-586v0zM699 471q0 -15 -11 -26t-26 -11h-50v0h-275q-15 0 -26 11t-11 26v300
h399v-300zM624 721h-112v-237h112v237z" />
    <glyph glyph-name="reject-2" unicode="&#xe6ad;" 
d="M828 807h-633q-29 0 -50 -21t-21 -50v-93h775v93q0 29 -21 50t-50 21zM124 6q0 -27 18 -46.5t45 -22.5l63 110l65 -112l64 112l65 -112l64 112l65 -112l64 112l65 -112l65 112l64 -112q28 2 48 22t20 49v571h-775v-571v0zM374 398l49 49l88 -88l89 88l49 -49l-88 -88
l88 -89l-49 -49l-89 88l-88 -88l-49 49l88 89z" />
    <glyph glyph-name="list" unicode="&#xe633;" 
d="M97 612h89q13 0 22.5 9.5t9.5 22.5v64q0 14 -9.5 23.5t-22.5 9.5h-89q-13 0 -22.5 -9.5t-9.5 -23.5v-64q0 -13 9.5 -22.5t22.5 -9.5zM186 455h-89q-13 0 -22.5 -9.5t-9.5 -22.5v-64q0 -13 9.5 -22.5t22.5 -9.5h89q13 0 22.5 9.5t9.5 22.5v64q0 13 -9.5 22.5t-22.5 9.5z
M186 167h-89q-13 0 -22.5 -9.5t-9.5 -23.5v-67q0 -14 9.5 -23.5t22.5 -9.5h89q13 0 22.5 9.5t9.5 23.5v67q0 13 -9.5 23t-22.5 10zM349 612h578q13 0 22.5 9.5t9.5 22.5v64q0 14 -9.5 23.5t-22.5 9.5h-578q-13 0 -22.5 -9.5t-9.5 -23.5v-64q0 -13 9.5 -22.5t22.5 -9.5z
M927 455h-578q-13 0 -22.5 -9.5t-9.5 -22.5v-64q0 -13 9.5 -22.5t22.5 -9.5h578q13 0 22.5 9.5t9.5 22.5v64q0 13 -9.5 22.5t-22.5 9.5zM927 167h-578q-13 0 -22.5 -9.5t-9.5 -23.5v-67q0 -14 9.5 -23.5t22.5 -9.5h578q13 0 22.5 9.5t9.5 23.5v67q0 14 -9.5 23.5t-22.5 9.5z
" />
    <glyph glyph-name="pass" unicode="&#xe6b1;" 
d="M430 220l-204 205l57 58l147 -147l311 311l57 -58zM798 834h-572q-34 0 -58 -24t-24 -58v-529q0 -43 36 -68l332 -221l332 221q36 25 36 68v529q0 34 -24 58t-58 24z" />
    <glyph glyph-name="add-c" unicode="&#xe61a;" 
d="M512 832q-91 0 -174 -35.5t-143 -95.5t-95.5 -142.5t-35.5 -173.5t35.5 -173.5t95.5 -142.5t143 -95.5t174 -35.5t174 35.5t143 95.5t95.5 142.5t35.5 173.5t-35.5 173.5t-95.5 142.5t-143 95.5t-174 35.5v0zM753 351h-207v-207h-68v207h-207v68h207v207h68v-207h207v-68
zM753 351z" />
    <glyph glyph-name="set" unicode="&#xe640;" 
d="M507 211q-74 0 -126.5 52t-52.5 125.5t52.5 126t126.5 52.5t126 -52.5t52 -126t-52 -125.5t-126 -52v0v0zM507 507q-49 0 -84 -34.5t-35 -83.5t35 -84t84 -35t84 35t35 84t-35 83.5t-84 34.5v0v0zM390 -43h-1q-4 0 -7 1h-1v0q-101 31 -178 103l-1 1v0l-2 2v0q-1 1 -1 2
l-1 1l-1 2v0q-1 1 -1 2v1q-1 1 -1 2v0q-1 2 -1 3v0q0 1 -1 3v0v3v0v2v1q0 1 1 2v3v0q1 2 1 3v0v0q1 1 1 2v1l2 2v0v1v0q17 25 17 56q0 43 -30 72.5t-72 29.5h-6v0h-2h-1v0h-2v0l-0.5 0.5l-0.5 0.5v2v-2v0h-1v0h-1h-1v0h-1l-0.5 0.5l-0.5 0.5v0v0h-1v0h-1l-1 1v0h-0.5h-0.5v1
h-1v0h-0.5t-0.5 0.5v0.5h-1h-1v1h-1v1h-1v1h-1l-0.5 0.5l-0.5 0.5l-1 1v0q0 1 -1 1l2 2l-2 -2v0v0.5v0.5h-1v1h-0.5t-0.5 0.5v0.5v0v1h-0.5h-0.5v1v0q0 1 -0.5 1h-0.5v1v0v1v0h-1v1v0v2h-1v1v0v1q-12 50 -12 101t12 101v1v0.5v0.5h1v1v1v1h1v0.5v0.5v0q0 1 0.5 1h0.5v1v1h1
v1v0l1 1v1h1v1v0q1 0 1 0.5v0.5h1v1v0h1v1h1v1v0h1v0.5v0.5h1v0l1 1h1v1h1h1v1h1v0v0q1 0 1 1h1h1v0h1l1 1v0h1h1h1v0h1v0q1 0 2 1v0h1v0h2v0q3 -1 6 -1q42 0 72 30t30 72q0 31 -17 57v0v1l-2 2v0q0 2 -1 3v0q-1 2 -1 3v0v2v0v1q-1 1 -1 2v0v3v0v3v0q1 1 1 3v0q0 1 1 2v1
q0 1 1 2v1q0 1 1 2v0q1 1 1 2l1 1l1 2v0l2 2h1q77 74 179 104v0q4 1 7 1h1q5 0 9 -1v0h1v0v-1h1h1v0l1 -1v0q7 -3 11 -8q2 -3 3 -6h1v0q12 -27 37.5 -43t55 -16t54.5 16t38 43q2 4 5 8l8 6h1v0v0q1 0 1 1h1v0h0.5h0.5v0v1q5 1 10 1h1q4 0 8 -1v0v0q102 -31 179 -104h2v-2
l1 -1l1 -1v0l1 -2v0l2 -2v0q0 -2 1 -3v0q0 -1 1 -2v-1q0 -1 1 -2v0v-3v0q1 -6 -1 -11v0v-1q0 -1 -1 -2v0v0q0 -1 -1 -3v0q0 -1 -1 -2v-1v0q-17 -25 -17 -56q0 -42 30 -72t73 -30h4v0h1h3h1h1v0h1h1v0v0h1v-1h1v0h1h1v-1h1v0v0q1 0 1 -1h1v0h0.5h0.5v0l1 -1v0l1 -1h1v-1h1v0
q4 -3 6 -7v0v0v0h1v-1v-1h1v-1v-1v0v0v0q1 0 1 -0.5v-0.5v0v0q1 -2 1 -4q12 -50 12 -102t-12 -102q0 -2 -1 -4v0v0v-0.5t-1 -0.5v0v0v-1v0v-1h-1v-1v0v0v-1h-1v-1h-1v0v-1l-3 -3v-0.5t-1 -0.5v0v0v0l-1 -1v0v0l-0.5 -0.5l-0.5 -0.5h-1v0q0 -1 -1 -1v0v0q-3 -2 -6 -3h-1v0
l-1 -1h-1v0v0v0h-1h-1v0l-1 2l1 -2h-1h-1q0 -1 -1 -1v0h-2v0h-1v0h-4q-43 0 -73 -29.5t-30 -72.5q0 -30 17 -55v0v-1v0q1 -1 1 -2v-1q1 -1 1 -2v0q1 -2 1 -3v0q1 -1 1 -2v-1v-5v0v-3v0v-3v0l-1 -2v-1q0 -1 -1 -2v-1q-1 -1 -1 -2v0l-2 -2v0q-1 -2 -2 -3v0q0 -1 -1 -2h-1v0
q-78 -74 -180 -105q-4 -1 -9 -1v0h-1h-0.5h-1.5v0v0h-4v0v1h-1h-1v0h-1v0l-0.5 0.5l-0.5 0.5h-1h-1v1q-6 2 -10 7q-2 3 -4 7q-13 26 -38 42t-54.5 16t-55 -15.5t-37.5 -42.5v0l-1 -1q-1 -2 -3 -5q-4 -5 -11 -8v0q0 -1 -0.5 -1h-0.5v0v0h-1l-1 2l1 -2q0 -1 -1 -1v0v0v0h-1
q-4 -1 -9 -1v0v0v0zM510 92q40 0 75.5 -18.5t58.5 -51.5q64 24 117 69q-14 31 -14 65q0 63 42 109q41 45 102 52q5 33 5 66t-5 66q-61 7 -102 52q-42 46 -42 108q0 35 14 66q-53 45 -117 69q-23 -33 -58.5 -51.5t-75.5 -18.5t-75.5 18.5t-57.5 51.5q-64 -24 -116 -68
q14 -32 14 -67q0 -63 -43 -109q-41 -45 -102 -51q-6 -33 -6 -66t6 -66q61 -6 102 -51q43 -47 43 -110q0 -35 -14 -66q52 -44 116 -68q22 33 57.5 51.5t75.5 18.5v0v0v0zM510 92z" />
    <glyph glyph-name="box" unicode="&#xe632;" 
d="M839 603l-327 -186l-327 186q-14 8 -13.5 23.5t14.5 22.5l302 152q24 13 48 0l302 -151q13 -8 13.5 -23.5t-12.5 -23.5zM446 -34l-277 171q-26 15 -26 45v346q0 15 13.5 22.5t25.5 -0.5l277 -171q25 -15 25 -45v-346q1 -14 -12 -22t-26 0zM578 -34l277 171q25 15 25 45
v346q0 15 -13.5 22.5t-26.5 -0.5l-277 -171q-25 -15 -25 -45v-346q0 -14 13.5 -22t26.5 0z" />
    <glyph glyph-name="piechart" unicode="&#xe627;" horiz-adv-x="1026" 
d="M472 338v384h-1q-103 0 -191 -51t-138.5 -138.5t-50.5 -190.5t50.5 -190.5t138.5 -138.5t191 -51q78 0 148 30t122 83zM801 99l-286 289l289 286l17 -16q55 -54 84 -123.5t29 -146.5q0 -78 -30 -148.5t-86 -124.5zM581 387l221 -221q85 94 85 222q0 126 -83 220zM536 806
v0v-352l250 249q-49 48 -113.5 75.5t-136.5 27.5z" />
    <glyph glyph-name="setting-center" unicode="&#xe619;" horiz-adv-x="1025" 
d="M818 -43q-14 0 -23 9l-215 215q-9 10 -9 23t9.5 22.5t22.5 9.5t23 -9l192 -192l33 33l-191 192q-10 9 -10 22.5t9.5 23t23 9.5t22.5 -10l214 -214q10 -10 10 -23t-10 -23l-79 -79q-9 -9 -22 -9v0zM591 770v0q2 6 2 13v0q-1 6 -4 12l-0.5 0.5t-0.5 1.5q-3 4 -6 7q0 1 -2 2
h-1q-5 4 -6 4l-2 1v0q-86 35 -176.5 17t-155.5 -84q-1 0 -1.5 -1t-1 -1.5l-1 -1t-1.5 -0.5l-163 -162q-9 -10 -9 -23.5t9 -22.5l99 -99q10 -9 23 -9t23 9l56 57l68 -69q10 -9 23 -9t22.5 9.5t9.5 22.5t-9 23l-91 91q-10 9 -23 9t-23 -9l-56 -56l-53 53l140 139q0 1 0.5 1.5
l1 1t1.5 1t1 1.5q60 60 146 69q-3 -2 -7 -5q-15 -12 -26 -22q0 -1 -0.5 -1.5l-0.5 -0.5q-29 -30 -50 -65q-3 -5 -7 -13h1q-20 -40 0 -79q2 -4 6 -7q0 -1 0.5 -2t1.5 -1l71 -71q9 -10 22.5 -10t22.5 9.5t9 23t-9 22.5l-67 68q-5 10 0 19v0v1q4 6 5 8q16 28 40 52q1 1 13 11
q48 40 107 44h1.5h0.5q6 1 10 3q1 0 1.5 0.5l0.5 0.5q5 2 8 6l0.5 0.5l0.5 0.5q4 5 5 8q1 1 1 1.5v0.5zM288 -66q-43 0 -83 19q-15 7 -18 23.5t9 28.5l89 88l-34 33l-87 -88q-12 -12 -29 -8q-17 3 -23 18q-25 55 -14.5 114.5t53.5 101.5q37 38 90 50.5t105 -3.5l239 240
q-16 51 -3 104t51 91q56 56 136 56q41 0 80 -17q15 -7 18 -23.5t-9 -28.5l-89 -89l33 -34l90 90q12 12 28.5 9t23.5 -18q26 -55 15.5 -115.5t-53.5 -103.5q-56 -56 -136 -56q-31 0 -61 10l-239 -238q18 -52 5.5 -105.5t-51.5 -92.5q-56 -56 -136 -56v0zM281 -1q57 -4 98 37
q28 29 35 69t-10 77q-10 20 6 36l268 268q16 16 36 7q37 -17 77.5 -10t69.5 35q40 40 37 97l-73 -73q-10 -9 -23 -9t-23 9l-78 79q-10 9 -10 22.5t10 22.5l71 72q-55 1 -94 -38q-29 -28 -36 -67.5t10 -76.5q9 -20 -7 -36l-269 -269q-15 -16 -36 -7q-36 17 -76 9.5t-68 -35.5
q-39 -39 -37 -94l70 70q9 10 22.5 10t22.5 -10l79 -78q9 -10 9 -23t-9 -23l-72 -71v0z" />
    <glyph glyph-name="depot" unicode="&#xe65e;" 
d="M552 312h-69q-20 0 -26 -6t-6 -26v-71q0 -19 6 -25.5t26 -6.5h69q20 0 26 6.5t6 25.5v71q0 20 -6 26t-26 6zM734 140h-69q-20 0 -26.5 -6.5t-6.5 -26.5v-70q0 -20 6.5 -26t26.5 -6h69q20 0 26 6t6 26v70q0 20 -6 26.5t-26 6.5zM552 140h-69q-20 0 -26 -6.5t-6 -26.5v-70
q0 -20 6 -26t26 -6h69q20 0 26 6t6 26v70q0 20 -6 26.5t-26 6.5zM371 140h-70q-20 0 -26 -6.5t-6 -26.5v-70q0 -20 6 -26t26 -6h70q20 0 26 6t6 26v70q0 20 -6 26.5t-26 6.5zM371 312h-70q-20 0 -26 -6t-6 -26v-71q0 -19 6 -25.5t26 -6.5h70q20 0 26 6.5t6 25.5v71
q0 20 -6 26t-26 6zM371 484h-70q-20 0 -26 -6t-6 -26v-70q0 -20 6 -26t26 -6h70q20 0 26 6t6 26v70q0 20 -6 26t-26 6zM942 509l-408 288q-5 4 -10 7q-9 5 -20 2t-19 -12l-404 -286q-9 -6 -10.5 -18.5t6.5 -23.5t20 -14t21 3l28 20v-470q0 -14 9.5 -23t23 -9t22.5 9t9 23
v516l302 212l308 -216v-512q0 -14 9 -23t22.5 -9t23 9t9.5 23v467l21 -16q10 -6 22 -3t19.5 14t6.5 23.5t-11 18.5z" />
    <glyph glyph-name="spexamine" unicode="&#xe642;" 
d="M518 -66q-54 15 -135 68.5t-142 114.5t-61 92v206.5t-0.5 247.5t-0.5 105q8 3 21.5 8t56 17.5t87 21t108.5 14.5t125 3.5t132.5 -18.5t134.5 -46q0 -187 0.5 -356.5t0.5 -201.5q0 -24 -57 -84t-136.5 -118.5t-133.5 -73.5v0zM755 690q-243 96 -488 -3v-446
q0 -25 45.5 -69t98 -81.5t105.5 -68.5q80 51 161 122.5t81 101.5q0 101 -1.5 271t-1.5 173zM523 255q-7 -7 -17 -7v0q-10 0 -17 7l-124 125q-19 19 7 44q24 22 42 4l92 -90l143 185q9 9 21.5 10.5t29.5 -10.5q11 -12 11.5 -26t-7.5 -20z" />
    <glyph glyph-name="accesskey" unicode="&#xe651;" horiz-adv-x="1028" 
d="M729 615q-47 41 -109 39t-104 -45q-43 -41 -42 -103.5t47 -104.5t106 -41t102 47q46 43 44.5 104t-44.5 104v0zM690 446q-25 -24 -62 -25.5t-62 20.5q-29 25 -30 61.5t25 61.5q24 25 61 26t62 -20q26 -26 28.5 -62t-22.5 -62v0zM690 446zM622 834q-88 0 -164.5 -43.5
t-121.5 -119t-45 -163.5q0 -69 39 -157l-258 -264q-2 -2 -4 -5.5t-4.5 -15t-0.5 -24.5t14 -33t34 -40q17 -17 35 -25.5t29.5 -9.5t22.5 2.5t14.5 6t5.5 3.5v0l62 57q22 -21 49.5 -19.5t45.5 19.5q21 21 21 50.5t-21 50.5l107 112v0q67 -34 140 -34q91 0 167.5 44t120.5 119
t44 163.5t-44 163.5t-120.5 118.5t-167.5 43.5v0zM622 238q-79 0 -151 45l-6 -5l-163 -169l34 -33q8 -9 8 -17.5t-8 -16.5q-17 -17 -34 0l-28 28l-62 -56q-1 -2 -3.5 -4t-10 -6t-14.5 -6t-16.5 0t-17.5 10q-14 15 -13.5 32t6 25.5t7.5 10.5l259 269q-56 75 -56 163
q0 110 80 190t189 80q111 0 190.5 -78.5t79.5 -191.5q4 -113 -75.5 -191.5t-194.5 -78.5v0zM622 238z" />
    <glyph glyph-name="apps" unicode="&#xe7b9;" 
d="M956 325v0v5l-199 89v289l-230 103l-230 -103v-277l-3 2l-230 -103v-266l230 -103l216 97l217 -97l229 103v261zM727 243l-150 68l150 68l150 -68zM347 648l155 -70v-213l-155 70v213zM707 435l-155 -70v213l155 70v-213zM676 690l-149 -67l-149 67l149 67zM450 308
l-156 -70l-156 70l156 71zM114 263l155 -70v-166l-155 69v167zM319 27v166l155 70v-167zM547 268l155 -70v-171l-155 69v172zM907 96l-156 -69v171l156 70v-172z" />
    <glyph glyph-name="building-o" unicode="&#xe6f6;" 
d="M672 31v512h192v-510h-192v-2zM160 31v704h447v-702h-447v-2zM927 31v576h-255v192h-575v-766h-32v-63h894v63h-32v-2v0v0zM417 320h129v-95h-129v95zM225 320h129v-95h-129v95zM736 320h63v-95h-63v95zM736 478h63v-95h-63v95zM417 478h129v-95h-129v95zM225 478h129
v-95h-129v95zM417 638h129v-95h-129v95zM225 638h129v-95h-129v95z" />
    <glyph glyph-name="rmb-s-o" unicode="&#xe6d0;" 
d="M873 789h-702q-27 0 -45.5 -18.5t-18.5 -45.5v-702q0 -27 18.5 -45.5t45.5 -18.5h702q27 0 45.5 18.5t18.5 45.5v702q0 27 -18.5 45.5t-45.5 18.5zM873 23h-702v702h702v-702zM509 406h-147v-64h128v-64h-128v-64h128v-64h64v64h128v64h-128v64h128v64h-147l169 169
l-45 45l-137 -137l-137 137l-45 -45z" />
    <glyph glyph-name="customer" unicode="&#xe634;" 
d="M714 339q-34 29 -57.5 42.5t-30.5 12.5l-6 -1q-52 -29 -108 -29q-61 0 -115 33q-104 -48 -173.5 -170.5t-80.5 -280.5l739 -3q-8 120 -58 232t-110 164v0zM512 -6l-55 56l50 260l-28 39q6 7 33 7.5t33 -7.5l-28 -39l50 -260l-55 -56v0zM397 411q54 -32 115 -32
q56 0 108 28q53 29 84.5 81t31.5 114q0 93 -65.5 158.5t-158 65.5t-158.5 -65.5t-66 -158.5q0 -59 29.5 -110t79.5 -81v0z" />
    <glyph glyph-name="ticket-s-o" unicode="&#xe6d6;" 
d="M960 482q0 60 -46 84q-2 8 -2 12t2 12q46 26 46 86q0 33 -16 57t-43 33q-6 2 -14 2h-1.5h-2.5h-628q-22 0 -39 -13.5t-20 -34.5q-6 -31 -28.5 -53t-53.5 -27q-22 -4 -36 -20t-14 -37v-397q0 -21 13.5 -37t34.5 -20l2 -1q31 -5 53.5 -27t28.5 -52q3 -21 20 -34.5t39 -13.5
h628h2h1l5 -1q5 0 11 2q27 9 42.5 33.5t15.5 57.5q0 60 -46 84q-2 8 -2 12q0 3 2 12q46 25 46 86q0 60 -46 85q-2 7 -2 12q0 3 2 12q46 24 46 86zM259 64q-10 48 -45.5 82.5t-84.5 43.5v388q49 9 84.5 43.5t45.5 82.5h624q13 -6 13 -29t-13 -29q-10 -3 -17 -11t-10.5 -16.5
t-5.5 -18.5t-2 -14.5v-7.5q0 -4 0.5 -10.5t3.5 -19.5t10.5 -23.5t18.5 -13.5q15 -5 15 -31q0 -24 -14 -29q-12 -3 -19.5 -13.5t-10.5 -23.5t-3.5 -19.5t-0.5 -10.5q0 -5 1 -12t3.5 -19.5t10 -22.5t18.5 -14q15 -5 15 -30q0 -24 -15 -29q-11 -4 -18.5 -14t-10 -22.5t-3.5 -19
t-1 -12.5q0 -4 0.5 -10.5t3.5 -19t10.5 -23t18.5 -14.5q15 -5 15 -30q0 -20 -11 -28h-43h1h-584v0zM731 313h-408q-8 0 -13 -5.5t-5 -12.5v-1q0 -7 5 -12.5t13 -5.5h32l-2 -3q-1 -3 -1 -4q-14 -42 -38 -81q-4 -6 -2.5 -13.5t7.5 -11.5l2 -1q5 -4 14 -2q8 2 12 8
q24 40 47 106v1v0v1h120v-67q0 -6 -6 -12q-4 -5 -13 -5h-12q-7 0 -12.5 -5.5t-5.5 -13.5v-1q0 -7 5.5 -12.5t12.5 -5.5h12q10 0 21 4q35 16 35 51v67h113q0 -3 1 -5l42 -101q3 -7 10 -10t14 1q16 7 10 24l-37 91h27q7 0 12.5 5.5t5.5 12.5v1q0 7 -5.5 12.5t-12.5 5.5z
M732 614h-411q-7 0 -12.5 -5.5t-5.5 -13.5v0q0 -8 5.5 -13.5t12.5 -5.5h120v-37h-73q-23 0 -40 -17q-16 -17 -16 -40v-28q0 -23 16 -40q17 -17 40 -17h315q23 0 39 17q10 11 12 18q5 9 5 22v28q0 13 -5 22q-3 10 -12 18q-15 17 -39 17h-70v38h119q8 0 13.5 5.5t5.5 12.5v0
q0 8 -5.5 13.5t-13.5 5.5zM441 435h-73q-8 0 -13 5q-5 6 -5 14v28q0 8 5 14q5 5 13 5h73v-66zM575 435h-97v66h97v-66zM575 539h-97v38h97v-38zM683 501q7 0 13 -5q5 -6 5 -14v-28q0 -8 -5 -14q-6 -5 -13 -5h-70v66h70zM325 338h403q8 0 13.5 5.5t5.5 12.5v1q0 7 -5.5 12.5
t-13.5 5.5h-403q-7 0 -12.5 -5.5t-5.5 -12.5v-1q0 -7 5.5 -12.5t12.5 -5.5z" />
    <glyph glyph-name="idcard" unicode="&#xe652;" 
d="M310 193q0 -14 9.5 -24t23.5 -10h338q14 0 23.5 10t9.5 24t-9.5 24t-23.5 10h-338q-14 0 -23.5 -10t-9.5 -24zM310 328q0 -14 9.5 -24t23.5 -10h338q14 0 23.5 10t9.5 24t-9.5 24t-23.5 10h-338q-14 0 -23.5 -10t-9.5 -24zM467 678q0 18 13 30.5t32 12.5t32 -12.5
t13 -30.5v-116q0 -18 -13 -30.5t-32 -12.5t-32 12.5t-13 30.5v116zM400 697v-133q0 -47 33 -80t79 -33t79 33t33 80v133q0 47 -32.5 80.5t-79.5 33.5t-79.5 -33.5t-32.5 -80.5zM206 564h194v67h-248q-37 0 -63.5 -26t-26.5 -64v-494q0 -37 26.5 -63.5t63.5 -26.5h720
q37 0 63.5 26.5t26.5 63.5v494q0 38 -26.5 64t-63.5 26h-248v-67h194q31 0 53.5 -22.5t22.5 -54.5v-386q0 -32 -22.5 -54.5t-53.5 -22.5h-612q-31 0 -53.5 22.5t-22.5 54.5v386q0 32 22.5 54.5t53.5 22.5z" />
    <glyph glyph-name="search-light" unicode="&#xe622;" 
d="M619.5 541q-54.5 55 -132 55t-132.5 -55t-55 -132.5t55 -132t132.5 -54.5t132 54.5t54.5 132t-54.5 132.5zM314.5 235.5q-71.5 71.5 -71.5 173t71.5 173t173 71.5t173 -71.5t71.5 -173t-71.5 -173t-173 -71.5t-173 71.5zM771.5 124.5q-9.5 -9.5 -23.5 -9.5t-24 10l-47 47
q-10 10 -10 23.5t10 23.5t23.5 10t23.5 -10l47 -47q10 -10 10 -24t-9.5 -23.5z" />
    <glyph glyph-name="qiandai" unicode="&#xe618;" 
d="M896 238q-27 60 -65 115t-72 92t-64.5 64.5t-49 41t-18.5 12.5h-233q-7 -5 -20 -14t-49.5 -42.5t-70 -71.5t-73.5 -100.5t-68 -129.5q-17 -43 -9 -91t34 -78q53 -65 136 -62h2h482q13 0 35 4.5t55 23.5t51 49q44 80 -3 187zM640 205q12 0 19 -7t7 -18.5t-7 -18.5t-19 -7
h-102v-77q0 -12 -7 -19t-19 -7t-19 7t-7 19v77h-102q-12 0 -19 7t-7 18.5t7 18.5t19 7h102v51h-102q-12 0 -19 7t-7 18.5t7 18.5t19 7h56l-53 90q-6 9 -3 19t13 14q9 6 19.5 3t16.5 -13l69 -115h23l69 115q12 20 36 10q9 -5 11.5 -15.5t-1.5 -17.5l-56 -90h56q12 0 19 -7
t7 -18.5t-7 -18.5t-19 -7h-102v-51h102zM371 794h284q22 0 33 -10.5t9.5 -21.5t-1.5 -17l-56 -131h-256l-59 136q-9 44 33 44h13z" />
    <glyph glyph-name="4leaf" unicode="&#xe6de;" 
d="M433 148v157h-157q-64 0 -111 -47t-47 -110t47 -110t110.5 -47t110.5 47t47 110zM489 148q0 -89 -62.5 -151.5t-151 -62.5t-151 62.5t-62.5 151.5v0q0 89 62.5 151.5t151.5 62.5v0h213v-214v0zM591 148v157h157q64 0 110.5 -45t46.5 -112v0q0 -65 -46 -111t-111 -46v0
q-63 0 -110 47t-47 110zM534 148v0q0 -89 62.5 -151.5t151.5 -62.5v0v0q89 0 151.5 62.5t62.5 151.5v0v0q0 89 -62.5 151.5t-151.5 62.5v0h-214v-214zM433 620v-157h-157q-67 0 -112.5 46.5t-45.5 110.5q0 68 45 113t113 45v0q65 0 111 -46t46 -111v-1v0zM489 620
q0 89 -62.5 151.5t-150.5 62.5v0q-89 0 -151.5 -62.5t-62.5 -151.5v0v0q0 -88 62.5 -150.5t151.5 -62.5v0h213v213v0zM591 620v-157h157q64 0 110.5 45.5t46.5 111.5q0 68 -44.5 113t-112.5 45v0q-65 0 -111 -46t-46 -111v-1v0zM534 620q0 89 62.5 151.5t151.5 62.5v0
q89 0 151.5 -62.5t62.5 -151.5v0v0q0 -88 -62.5 -150.5t-151.5 -62.5v0h-214v213z" />
    <glyph glyph-name="finance" unicode="&#xe8f5;" 
d="M861 609h-688q-46 0 -79 -33t-33 -79v-424q0 -46 33 -79t79 -33h688q46 0 79 33t33 79v424q0 46 -33 79t-79 33zM909 73q0 -20 -14 -34t-34 -14h-688q-20 0 -34 14t-14 34v424q0 20 14 34t34 14h688q20 0 34 -14t14 -34v-424zM666 312q10 0 17.5 7.5t7.5 17.5t-7.5 17.5
t-17.5 7.5h-94l96 96q7 7 7 17.5t-7.5 18t-17.5 7.5t-18 -8l-114 -114l-114 114q-7 8 -17.5 8t-17.5 -7.5t-7 -18t7 -17.5l96 -96h-97q-10 0 -17.5 -7.5t-7.5 -17.5t7.5 -17.5t17.5 -7.5h124v-55h-124q-10 0 -17.5 -7.5t-7.5 -18t7.5 -17.5t17.5 -7h124v-119
q0 -10 7.5 -17.5t17.5 -7.5t17.5 7.5t7.5 17.5v119h124q10 0 17.5 7t7.5 17.5t-7.5 18t-17.5 7.5h-124v55h124zM176 649h682q13 0 22.5 9.5t9.5 22.5t-9.5 22.5t-22.5 9.5h-682q-13 0 -22.5 -9.5t-9.5 -22.5t9.5 -22.5t22.5 -9.5zM261 751h512q13 0 22.5 9.5t9.5 23
t-9.5 22.5t-22.5 9h-512q-13 0 -22.5 -9t-9.5 -22.5t9.5 -23t22.5 -9.5z" />
    <glyph glyph-name="order" unicode="&#xe6df;" 
d="M206 626h452v-78h-452v78zM203 463h452v-78h-452v78zM198 294h453v-78h-453v78zM819 295v392q0 54 -35.5 92.5t-85.5 38.5h-508q-50 0 -86 -38.5t-36 -92.5v-618q0 -55 36 -93t86 -38h441q2 2 3 9l2 38q1 4 1 12v11l-21 1h-426q-23 0 -39 17.5t-16 42.5v618q0 25 16 42.5
t39 17.5h508q23 0 39 -17.5t16 -42.5v-393v0zM771 132q-4 0 -11 -1q-25 -4 -41.5 -23t-16.5 -45q0 -18 9 -34q20 -35 60 -35q12 0 23 5q20 6 33 24t13 40t-13 41q-21 28 -56 28v0zM811 25q-16 -17 -39 -17q-30 0 -47 25q-9 14 -9 32v0q0 20 12.5 35.5t31.5 19.5q6 2 12 2
q20 0 35 -13.5t19 -32.5q1 -6 1 -11q0 -23 -16 -40v0zM943 137l-28 7q-7 23 -23 42l30 2q12 19 0 31l-15 15q-6 6 -15 6h-1q-8 0 -16 -5l-24 -15q-1 0 -2.5 0.5t-1.5 1.5q-21 10 -44 13l22 21q-1 8 -7.5 15t-15.5 7h-21h-1q-16 -1 -21 -22l-7 -28q-25 -8 -44 -24l-2 31
q-7 5 -16 5t-15 -6l-15 -15q-12 -12 0 -31l15 -26q-11 -21 -13 -46l-22 21q-8 -1 -14.5 -7.5t-6.5 -14.5v-22q0 -17 21 -22l28 -7q3 -8 7 -17l-15 -26q-7 -11 -5 -22q1 -6 6 -10l14 -14q6 -6 15 -6t16 5l25 16q11 -5 21 -9l7 -28q5 -21 22 -21h22q8 0 14.5 6.5t7.5 14.5
l7 28q10 4 19 9l24 -16q8 -5 16 -5q10 0 16 6l15 15q12 12 0 31l-15 25q5 9 8 18l28 7q21 5 21 22v22q0 8 -6.5 14.5t-14.5 7.5zM813 40q-11 -4 -23 -4q-39 0 -59 35q-9 16 -9 34q0 26 16.5 45t41.5 23q7 1 11 1q35 0 56 -29q13 -18 13 -40q0 -23 -13 -40.5t-34 -24.5z
M792 162q-6 0 -12 -2q-19 -4 -31.5 -19.5t-12.5 -35.5q0 -17 9 -32q17 -25 47 -25q23 0 39 17t16 40q0 5 -1 11q-4 20 -19 33t-35 13z" />
    <glyph glyph-name="qi-c-o" unicode="&#xe621;" 
d="M512 833q-91 0 -174 -35.5t-143.5 -96t-96 -143.5t-35.5 -174t35.5 -174.5t96 -143.5t143.5 -96t174 -36t174.5 36t143.5 96t96 143.5t36 174.5t-36 174t-96 143.5t-143.5 96t-174.5 35.5zM512 -10q-108 0 -198.5 52.5t-142.5 143t-52 198.5t52 198.5t142.5 142.5
t198.5 52t198.5 -52t143 -142.5t52.5 -198.5t-52.5 -198.5t-143 -143t-198.5 -52.5zM569 308h153v64h-153v45q0 32 6 47q2 6 2 11.5t-16 5.5h-70v-277h-76v150q0 32 6 46q3 7 3 13q0 5 -16 5h-68v-214h-88v-66h516v66h-199v104zM557 644q3 4 10 8q6 4 6 9t-4.5 7t-86.5 23
q-63 -162 -260 -231q23 -19 56 -61q163 81 237 188q78 -115 231 -187q31 49 56 77q-80 20 -144.5 64t-100.5 103z" />
    <glyph glyph-name="setting" unicode="&#xe653;" 
d="M928 96h-420q-11 42 -45.5 69t-78.5 27t-78.5 -27t-45.5 -69h-164q-13 0 -22.5 -9.5t-9.5 -22.5t9.5 -22.5t22.5 -9.5h164q11 -42 45.5 -69t78.5 -27t78.5 27t45.5 69h420q13 0 22.5 9.5t9.5 22.5t-9.5 22.5t-22.5 9.5zM384 -1q-27 0 -46 19t-19 46t19 46t46 19t46 -19
t19 -46t-19 -46t-46 -19zM928 416h-164q-11 42 -45.5 69t-78.5 27t-78.5 -27t-45.5 -69h-420q-13 0 -22.5 -9.5t-9.5 -22.5t9.5 -22.5t22.5 -9.5h420q11 -42 45.5 -69t78.5 -27t78.5 27t45.5 69h164q13 0 22.5 9.5t9.5 22.5t-9.5 22.5t-22.5 9.5zM640 319q-27 0 -46 19
t-19 46t19 46t46 19t46 -19t19 -46t-19 -46t-46 -19zM96 672h164q11 -42 45.5 -69t78.5 -27t78.5 27t45.5 69h420q13 0 22.5 9.5t9.5 22.5t-9.5 22.5t-22.5 9.5h-420q-11 42 -45.5 69t-78.5 27t-78.5 -27t-45.5 -69h-164q-13 0 -22.5 -9.5t-9.5 -22.5t9.5 -22.5t22.5 -9.5z
M384 769q27 0 46 -19t19 -46t-19 -46t-46 -19t-46 19t-19 46t19 46t46 19z" />
    <glyph glyph-name="dashboard" unicode="&#xe65f;" 
d="M512 594q-129 0 -220.5 -91.5t-91.5 -220.5q0 -13 9.5 -22.5t22.5 -9.5t22.5 9.5t9.5 22.5q0 103 72.5 175.5t175.5 72.5t175.5 -72.5t72.5 -175.5q0 -13 9.5 -22.5t22.5 -9.5t22.5 9.5t9.5 22.5q0 129 -91.5 220.5t-220.5 91.5zM512 738q-122 0 -225 -60t-163 -163
t-60 -225q0 -133 72 -244h752q72 111 72 244q0 122 -60 225t-163 163t-225 60zM851 110h-678q-45 84 -45 180q0 78 30 149q29 69 82.5 122.5t122.5 82.5q71 30 149 30t149 -30q69 -29 122.5 -82.5t82.5 -122.5q30 -71 30 -149q0 -96 -45 -180zM532 310v0q-15 0 -30 -6
l-68 69q-9 9 -22.5 9t-23 -9t-9.5 -22.5t10 -22.5l69 -69q-6 -14 -6 -29v0q0 -34 23.5 -57t56.5 -23t56.5 23t23.5 56.5t-23.5 57t-56.5 23.5z" />
    <glyph glyph-name="filebox" unicode="&#xe65a;" 
d="M153 344h43v75zM807 812q8 0 14 -6t6 -14.5t-6 -14.5t-14 -6h-590q-9 0 -15 6t-6 14.5t6 14.5t15 6h590zM807 729v0q8 0 14 -6t6 -14v0q0 -9 -6 -15t-14 -6h-590q-9 0 -15 6t-6 14.5t6 14.5t15 6h590zM238 344h63q14 0 23.5 -9t10.5 -22q10 -64 60 -106q50 -43 117 -43
q66 0 116 43q51 43 61 108q2 13 11.5 21t22.5 8h63v261h-548v-261v0zM827 344h43l-43 75v-75zM827 556l128 -221q5 -8 4 -21v-318q0 -14 -10 -24t-24 -10h-827q-14 0 -24 10t-10 24v318q-1 12 5 21l127 221v70q0 9 6 15t15 6h590q8 0 14 -6t6 -15v-70zM273 276h-140v-245
h757v245h-140q-20 -72 -77 -122q-71 -59 -161 -59q-92 0 -162 59q-57 50 -77 122z" />
    <glyph glyph-name="2boxs" unicode="&#xe693;" 
d="M149 384v349q-1 31 19.5 51.5t51.5 20.5q95 2 189 0q31 0 51.5 -20.5t20.5 -52.5q-1 -347 0 -695q0 -32 -21 -53t-51 -21q-95 -1 -189 0q-27 0 -46 15.5t-24 39.5q-1 6 -1 18v348zM194 384v-350q0 -19 15 -24q8 -3 17 -3h132h48q29 1 29 30v694q0 29 -28 29q-93 1 -186 0
q-28 0 -28 -28q1 -116 1 -348zM545 384v345q0 35 20 55t55 20h180q13 0 26 -4q23 -6 36 -23.5t13 -41.5v-700q0 -28 -19 -48t-46 -21q-80 -1 -200 0q-25 1 -45 20t-20 51v347zM830 384v346q0 29 -29 29h-182q-29 0 -29 -29v-691q0 -28 28 -28h185q28 0 28 28q-1 115 -1 345z
M281 455v159q0 8 1 12q1 8 6.5 13t13.5 6q8 0 14.5 -4.5t8.5 -11.5q1 -5 1 -14v-321q0 -9 -1 -13q-5 -18 -23 -16q-18 1 -20 18q-1 4 -1 12v160zM351 148.5q0 -15.5 -11 -27t-27 -11.5t-27 11.5t-11 27.5q0 15 11 26t27 11q15 0 26.5 -11t11.5 -26.5zM724 454
q0 -109 -1 -164q0 -10 -6 -19q-8 -10 -23 -6q-12 4 -15 18v9v330q1 10 7 16t15.5 6t16 -6.5t6.5 -15.5v-20.5v-23v-19.5v-105zM673 148.5q0 15.5 11.5 26.5t27 10.5t26 -11.5t10.5 -26q0 -16 -11 -27t-26.5 -11t-26.5 11.5t-11 27z" />
    <glyph glyph-name="yaoqingma2" unicode="&#xe687;" 
d="M913 100h-802q-19 0 -33 13.5t-14 32.5v158q39 0 66.5 27t27.5 64.5t-27.5 64t-66.5 26.5v136q0 19 14 32.5t33 13.5h802q19 0 33 -13.5t14 -32.5v-136q-39 0 -66.5 -26.5t-27.5 -64t27.5 -64.5t66.5 -27v-158q0 -19 -14 -32.5t-33 -13.5zM889 252q-42 19 -68 57.5
t-26 85.5t26 85.5t68 58.5v60h-754v-60q42 -20 68 -58.5t26 -85.5t-26 -85.5t-68 -57.5v-84h754v84v0zM677 463h-330v68h330v-68z" />
    <glyph glyph-name="resource" unicode="&#xe682;" 
d="M926 446h-831q-12 0 -21.5 -9.5t-9.5 -22.5v-243q0 -13 9.5 -22.5t21.5 -9.5h386v-81q-19 -15 -19 -40q0 -21 15 -36.5t35.5 -15.5t35 15.5t14.5 36.5q0 25 -19 40v81h383q13 0 22 9.5t9 22.5v243q0 13 -9 22.5t-22 9.5zM895 203h-769v179h769v-179v0zM791.5 239
q20.5 0 35 15t14.5 36.5t-14.5 37t-35 15.5t-35.5 -15.5t-15 -37t15 -36.5t35.5 -15zM791.5 304q5.5 0 9 -4t3.5 -9.5t-3.5 -9t-9 -3.5t-9 3.5t-3.5 9t3.5 9.5t9 4zM926 804h-831q-12 0 -21.5 -9.5t-9.5 -22.5v-243q0 -13 9.5 -22.5t21.5 -9.5h831q13 0 22 9.5t9 22.5v243
q0 13 -9 22.5t-22 9.5zM895 561h-769v179h769v-179v0zM791.5 597q20.5 0 35 15t14.5 36.5t-14.5 36.5t-35 15t-35.5 -15t-15 -36.5t15 -36.5t35.5 -15zM791.5 662q5.5 0 9 -4t3.5 -9.5t-3.5 -9.5t-9 -4t-9 4t-3.5 9.5t3.5 9.5t9 4zM920 50h-74q-13 0 -22 -9.5t-9 -22.5
t9 -22.5t22 -9.5h74q13 0 22 9.5t9 22.5t-9 22.5t-22 9.5zM734 50h-74q-13 0 -22 -9.5t-9 -22.5t9 -22.5t22 -9.5h74q13 0 22 9.5t9 22.5t-9 22.5t-22 9.5zM362 50h-74q-13 0 -22 -9.5t-9 -22.5t9 -22.5t22 -9.5h74q13 0 22 9.5t9 22.5t-9 22.5t-22 9.5zM176 50h-74
q-13 0 -22 -9.5t-9 -22.5t9 -22.5t22 -9.5h74q13 0 22 9.5t9 22.5t-9 22.5t-22 9.5z" />
    <glyph glyph-name="screen" unicode="&#xe660;" 
d="M876 786h-728q-23 0 -39.5 -16.5t-16.5 -39.5v-505q0 -23 16.5 -39.5t39.5 -16.5h728q23 0 39.5 16.5t16.5 39.5v505q0 23 -16.5 39.5t-39.5 16.5zM857 244h-690v467h690v-467zM699 578h75v-284h-75v284zM550 661h75v-367h-75v367zM400 486h75v-192h-75v192zM251 402h75
v-108h-75v108zM644 109q0 8 -5.5 13.5t-13.5 5.5h-225q-8 0 -13.5 -5.5t-5.5 -13.5v-52h-162v-75h582v75h-157v52z" />
    <glyph glyph-name="yycoudlogo" unicode="&#xe98d;" 
d="M335 316q6 3 6 12v212q0 12 -4.5 15.5t-13.5 3.5h-227q-14 0 -14 -13v-110q0 -68 -15 -114v0q-1 -3 1 -6q2 -2 5 -2h29q6 0 10 5v1q7 14 12 66h63v-51q0 -7 7 -7h34q5 0 5 7v51h62v-36q0 -2 -2 -2h-19q-8 0 -8 -7v-20q0 -7 8 -7h1h53q4 0 7 2zM132 524h55v-34h-61v26
q0 8 6 8zM187 421v-2v2zM187 421h-61v34h61v-34zM233 524h55q3 0 5 -1.5t2 -5.5v-27h-62v34zM296 421h-63v34h63v-34zM581 451q4 0 4 -4q0 -12 -31 -47q-14 15 -25 31l-6 3h-40q-5 0 -3 -5q17 -31 44 -58q-18 -15 -31 -20q-7 -3 -15 -3h-8q-7 0 -7 -8v-20q0 -6 6 -6h20
q12 0 23 5q18 8 41 27q32 -25 38 -24q13 -9 38 -9h19q7 0 7 6v23q0 6 -6 6h-3q-16 0 -32 6q-15 8 -30 20q54 54 54 94q0 18 -22 18h-144q2 14 3 24h177q7 0 7 7v21q0 7 -7 7h-173l1 19q1 4 -1 6q-2 3 -6 3h-29q-8 0 -9 -7q0 -8 -1 -21h-45q-8 0 -8 -7v-21q0 -7 8 -7h41
q-15 -129 -50 -185q-2 -4 0 -8q2 -3 6 -3h28q8 0 12 6l1 1v1q24 42 39 129h115v0zM706 510h236q8 0 8 7v20q0 8 -8 8h-236q-8 0 -8 -8v-20q0 -7 8 -7zM697 435h41l-37 -93q-6 -12 0 -21.5t24 -9.5h189q20 0 28 10q7 9 4 23l-16 57q-1 6 -6 7h-1h-48q-8 0 -8 -7v-19
q0 -8 8 -8h1h15q2 -5 4 -12l3 -10.5l1 -3.5h-142q-3 0 -2 3l32 84h164q7 0 7 8v20q0 8 -7 8h-254q-7 0 -7 -8v-20q0 -8 7 -8zM876 263q-3 0 -3 -2v-34q-8 -2 -13 -0.5t-5 4.5v30q0 2 -3 2h-17v-31q0 -12 14.5 -16t40.5 3q3 1 3 5v39h-17v0zM364 263h-15q-3 0 -4 -3l-11 -22
q-1 -1 -2 -1t-2 1q-9 20 -10 21q-1 4 -5 4h-14q-1 0 -1 -1l22 -47l-11 -21q-2 -4 2 -4h15q36 70 37 71q0 2 -1 2zM549 263h-14q-3 0 -5 -3l-11 -22q-1 -1 -2 -1t-1 1q-10 20 -10 21q-2 4 -6 4h-14q-1 0 0 -1l21 -47l-11 -21q-2 -4 3 -4h15q36 70 36 71q1 2 -1 2zM600 258
q-8 7 -23 7q-14 0 -22 -8q-8 -7 -8 -17q0 -11 8 -18t22 -7q15 0 23 7t8 18t-8 18zM587 235q-7 -14 -17 -9.5t-2 18.5q7 14 17 9.5t2 -18.5zM415 258q-8 7 -23 7q-14 0 -22 -8q-8 -7 -8 -17q0 -11 7 -18q9 -7 23 -7t23 7q8 7 8 18t-8 18zM402 235q-7 -13 -17.5 -9t-2.5 18
t17.5 9.5t2.5 -18.5zM430 260q-3 -1 -3 -5v-39v0v0h17q3 0 3 3v34q8 2 13 0.5t5 -5.5v-30q0 -2 3 -2h17v31q0 12 -14.5 16t-40.5 -3zM653 263q-3 0 -3 -3v-34q-8 -2 -13 -0.5t-5 5.5v29q0 3 -3 3h-17v-31q0 -13 14.5 -17t40.5 3q3 1 3 5v40h-17v0zM823 257q-8 7 -22 7
t-22 -7q-7 -7 -7 -17q0 -11 7 -18q8 -7 22 -7t22 8q7 6 7 17q0 10 -7 17zM810 235q-6 -13 -16 -9t-2 18q7 13 16 9q10 -4 2 -18zM748 284v-68h16q2 0 2 2v68h-16q-2 0 -2 -2zM942 286q-3 0 -3 -3v-20q-5 1 -11 1q-14 0 -22 -7t-8 -18t8 -18t22 -7q6 0 11 1v-1h17q3 0 3 2v70
h-17zM939 236l-0.5 -0.5t-0.5 -1.5q-7 -13 -17 -9t-2 19q7 13 17 9q2 0 3 -2q2 -2 2 -6v0q0 -4 -2 -9zM738 257q-8 7 -22 6t-23 -9q-6 -6 -7 -15q-1 -11 7 -17q8 -8 22 -8q15 0 23 8q1 1 2 3l-4 3q-1 -1 -3 -2.5t-6.5 -3.5t-9.5 -2q-13 1 -12 13q0 9 9 21q2 4 8 4
q2 -1 3.5 -2.5t1.5 -3.5q0 -3 -1 -5h16q1 4 -2 9q-1 0 -1.5 0.5z" />
    <glyph glyph-name="box-o" unicode="&#xe659;" 
d="M934 565v241h-241v-91h-362v91h-241v-241h91v-362h-91v-241h241v91h362v-91h241v241h-91v362h91zM753 746h121v-121h-121v121zM150 746h121v-121h-121v121zM271 22h-121v121h121v-121zM874 22h-121v121h121v-121zM783 203h-90v-90h-362v90h-90v362h90v90h362v-90h90v-362
z" />
    <glyph glyph-name="unlock" unicode="&#xe98e;" 
d="M789 -63h-557q-42 0 -72 33t-30 79v281q0 46 30 79t72 33v84q0 127 81.5 217.5t197 90.5t197 -90.5t81.5 -217.5v-2v0q0 -11 -7.5 -18.5t-17.5 -7.5t-17 7.5t-8 18.5v0v2q0 104 -67 178t-161.5 74t-161 -74t-66.5 -178v-84h506q42 0 72 -33t30 -79v-281q0 -46 -30 -79
t-72 -33zM840 330q0 23 -15 39.5t-36 16.5h-557q-21 0 -36 -16.5t-15 -39.5v-281q0 -23 15 -39.5t36 -16.5h557q21 0 36 16.5t15 39.5v281zM536 167v-90q0 -11 -7.5 -19.5t-18 -8.5t-18 8.5t-7.5 19.5v90q-22 9 -36 30.5t-14 48.5q0 34 22 59t53.5 25t54 -25t22.5 -59
q0 -27 -14.5 -48.5t-36.5 -30.5zM510.5 274q-10.5 0 -18 -8.5t-7.5 -20t7.5 -19.5t18 -8t18 8t7.5 19.5t-7.5 20t-18 8.5zM511 274z" />
    <glyph glyph-name="release" unicode="&#xe635;" horiz-adv-x="1029" 
d="M868 78l-418 129l418 482l-547 -482l-321 128l1028 547zM450 -115v225l129 -64zM450 -115z" />
    <glyph glyph-name="bigclose-o" unicode="&#xe638;" 
d="M944 -51q-10 0 -16 6l-864 864q-7 7 -7 17.5t7 18t16 7.5t16 -8l864 -864q7 -7 7 -17.5t-7 -17.5q-6 -6 -16 -6zM80 -51q-10 0 -16 6q-7 7 -7 17.5t7 17.5l864 864q16 16 32 0q7 -7 7 -17.5t-7 -17.5l-864 -864q-6 -6 -16 -6z" />
    <glyph glyph-name="edit-c-o" unicode="&#xe639;" 
d="M705 182q0 -8 -5 -12.5t-12 -4.5h-380q-7 0 -12 4.5t-5 12.5v379q0 8 5 12.5t12 4.5h321v20h-321q-15 0 -25.5 -11t-10.5 -26v-378q0 -15 10.5 -26t25.5 -11h378q15 0 26 11t11 26v304h-20v-306zM499 325l24 24l183 181q-11 11 -18 17l-30 30l-206 -206q4 -2 12 -11
l24 -24zM724 619q-12 12 -24 0l-29 -30l48 -47l29 29q12 12 0 24zM442 357q-5 -9 -9 -22l-14 -42l44 14q17 5 22 8q-5 6 -8 10l-24 24q-6 5 -11 8zM512 896q-212 0 -362 -150t-150 -362t150 -362t362 -150t362 150t150 362t-150 362t-362 150zM512 -77q-94 0 -179 36.5
t-147 98.5t-98.5 147t-36.5 179t36.5 179t98.5 147t147 98.5t179 36.5t179 -36.5t147 -98.5t98.5 -147t36.5 -179t-36.5 -179t-98.5 -147t-147 -98.5t-179 -36.5z" />
    <glyph glyph-name="4box-c-o" unicode="&#xe63a;" 
d="M511 895q-104 0 -198.5 -40.5t-163 -109t-109 -163.5t-40.5 -199t40.5 -198.5t109 -163t163 -109t198.5 -40.5t199 40.5t163.5 109t109 163t40.5 198.5t-40.5 199t-109 163.5t-163.5 109t-199 40.5zM511 -84q-95 0 -181.5 37t-149 99.5t-99.5 149t-37 181.5t37 181.5
t99.5 149.5t149 100t181.5 37t181.5 -37t149.5 -100t100 -149.5t37 -181.5t-37 -181.5t-100 -149t-149.5 -99.5t-181.5 -37zM609 586v0q0 -7 -7.5 -7t-7.5 7v0q0 8 7.5 8t7.5 -8zM624 594h110v-15h-110v15zM609 535v0q0 -8 -7.5 -8t-7.5 8v0q0 7 7.5 7t7.5 -7zM624 542h110
v-15h-110v15zM609 483v0q0 -7 -7.5 -7t-7.5 7v0q0 8 7.5 8t7.5 -8zM624 491h110v-15h-110v15zM432 657h-150q-19 0 -32.5 -13.5t-13.5 -32.5v-149q0 -19 13.5 -32.5t32.5 -13.5h150q19 0 32.5 13.5t13.5 32.5v149q0 19 -13.5 32.5t-32.5 13.5zM455 462q0 -10 -6.5 -16.5
t-16.5 -6.5h-150q-9 0 -16 6.5t-7 16.5v149q0 10 7 16.5t16 6.5h150q10 0 16.5 -6.5t6.5 -16.5v-149zM740 657h-149q-19 0 -32.5 -13.5t-13.5 -32.5v-149q0 -19 13.5 -32.5t32.5 -13.5h149q19 0 32.5 13.5t13.5 32.5v149q0 19 -13.5 32.5t-32.5 13.5zM763 462
q0 -10 -6.5 -16.5t-16.5 -6.5h-149q-10 0 -16.5 6.5t-6.5 16.5v149q0 10 6.5 16.5t16.5 6.5h149q10 0 16.5 -6.5t6.5 -16.5v-149zM432 355h-150q-19 0 -32.5 -13.5t-13.5 -32.5v-149q0 -19 13.5 -32.5t32.5 -13.5h150q19 0 32.5 13.5t13.5 32.5v149q0 19 -13.5 32.5
t-32.5 13.5zM455 160q0 -10 -6.5 -16.5t-16.5 -6.5h-150q-9 0 -16 6.5t-7 16.5v149q0 10 7 16.5t16 6.5h150q10 0 16.5 -6.5t6.5 -16.5v-149zM740 355h-149q-19 0 -32.5 -13.5t-13.5 -32.5v-149q0 -19 13.5 -32.5t32.5 -13.5h149q19 0 32.5 13.5t13.5 32.5v149
q0 19 -13.5 32.5t-32.5 13.5zM763 160q0 -10 -6.5 -16.5t-16.5 -6.5h-149q-10 0 -16.5 6.5t-6.5 16.5v149q0 10 6.5 16.5t16.5 6.5h149q10 0 16.5 -6.5t6.5 -16.5v-149z" />
    <glyph glyph-name="addmachine-o" unicode="&#xe63b;" 
d="M512 11h-314q-25 0 -42 17.5t-17 42.5v627q0 25 17 42t42 17h628q25 0 42 -17t17 -42v-314q0 -9 -5.5 -14.5t-14.5 -5.5t-15 5.5t-6 14.5v314q0 7 -5.5 12.5t-12.5 5.5h-628q-7 0 -12.5 -5.5t-5.5 -12.5v-627q0 -8 5.5 -13.5t12.5 -5.5h314q9 0 14.5 -6t5.5 -14.5
t-5.5 -14.5t-14.5 -6zM864 487h-704q-9 0 -15 6t-6 14.5t6 14.5t15 6h704q9 0 15 -6t6 -14.5t-6 -14.5t-15 -6zM512 256h-352q-9 0 -15 5.5t-6 14.5t6 15t15 6h352q9 0 14.5 -6t5.5 -15t-5.5 -14.5t-14.5 -5.5zM328 128h-80q-8 0 -14 6t-6 14.5t6 14.5t14 6h80q8 0 14 -6
t6 -14.5t-6 -14.5t-14 -6zM328 364h-80q-8 0 -14 5.5t-6 14.5t6 14.5t14 5.5h80q8 0 14 -5.5t6 -14.5t-6 -14.5t-14 -5.5zM328 594h-80q-8 0 -14 5.5t-6 14.5t6 15t14 6h80q8 0 14 -6t6 -15t-6 -14.5t-14 -5.5zM864 187h-352q-9 0 -14.5 6t-5.5 15t5.5 14.5t14.5 5.5h352
q9 0 15 -5.5t6 -14.5t-6 -15t-15 -6zM688 11q-9 0 -14.5 6t-5.5 15v352q0 9 5.5 14.5t14.5 5.5t15 -5.5t6 -14.5v-352q0 -9 -6 -15t-15 -6z" />
    <glyph glyph-name="settings-c-o" unicode="&#xe63c;" 
d="M510.5 -106q99.5 0 190 39t156.5 104.5t104.5 156t38.5 190.5t-38.5 190.5t-104.5 156t-156.5 104.5t-190 39t-190.5 -39t-156.5 -104.5t-104.5 -156t-39 -190.5t39 -190.5t104.5 -156t156.5 -104.5t190.5 -39zM510 833q91 0 174.5 -35.5t143.5 -95.5t95.5 -143.5
t35.5 -174.5t-35.5 -174.5t-95.5 -143.5t-143.5 -95.5t-174.5 -35.5t-174 35.5t-143.5 95.5t-96 143.5t-35.5 174.5t35.5 174.5t96 143.5t143.5 95.5t174 35.5zM557 465.5q-19 53.5 -72.5 77t-109.5 3.5t-82 -71.5t-6.5 -105t73 -77t109.5 -3.5t81.5 71.5t6.5 105z
M308.5 378.5q-16.5 44.5 5.5 88t69 60.5t92 -3t61 -65t-5.5 -88.5t-68.5 -60t-92 3.5t-61.5 64.5zM486 178l41 15l-10 66q12 7 22 15l63 -30l28 32l-43 52q7 12 11 23l71 5l8 41l-65 24q0 12 -2 24l60 38l-14 40l-70 -11q-7 11 -15 20l33 61l-33 27l-56 -43q-11 6 -23 10
l-3 68l-43 7l-26 -63q-13 0 -26 -3l-38 57l-41 -15l9 -66q-11 -7 -21 -15l-63 30l-28 -32l43 -53q-7 -11 -12 -22l-70 -5l-9 -41l65 -24q1 -13 2 -25l-59 -38l14 -39l70 11q6 -11 14 -20l-32 -61l32 -27l56 43q12 -6 23 -10l3 -68l43 -7l27 63q13 0 26 2l38 -56v0z
M261 358.5q-23 63.5 7.5 124.5t97 84.5t129.5 -4.5t86 -91t-7.5 -124t-97 -85t-129.5 4t-86 91.5zM793 188l18 -20l15 8l-8 25l8 6l26 -8l9 14l-20 18q5 10 5 22l25 -8l1 16l-26 6q-2 10 -5 18l24 9l-8 14l-26 -7q-11 13 -26 19l28 13l-14 8l-19 -19q-10 4 -21 5l7 24h-17
l-7 -25q-10 -2 -20 -6l-8 23l-15 -8l8 -25q-14 -11 -22 -27l-12 29l-9 -14l20 -18q-5 -10 -5 -22l-25 8l-1 -16l26 -6q2 -9 5 -17l-24 -10l8 -14l26 7q11 -12 25 -19l-27 -13l14 -8l19 19q10 -4 22 -4l-8 -25h17l7 25q10 2 20 6zM772 224.5q-14 0.5 -23.5 10t-8.5 23
t11 22.5t24 8.5t23.5 -10t8.5 -23t-11 -22.5t-24 -8.5z" />
    <glyph glyph-name="shield-o" unicode="&#xe63e;" 
d="M866 707q-16 13 -34 13h-24q-86 0 -149 25.5t-88 60.5q-18 26 -54 26h-15q-33 0 -51 -26q-23 -35 -86 -60.5t-149 -25.5h-24q-18 0 -34 -13q-14 -14 -14 -35v-304q0 -8 2 -11q12 -150 111 -264.5t245 -145.5q2 0 5 -0.5t5 -0.5q6 0 10 1q147 33 246.5 146.5t109.5 263.5
q2 3 2 11v304q0 21 -14 35zM832 368q-8 -137 -97.5 -241t-222.5 -133q-133 29 -222.5 133t-97.5 241v288q0 7 5 11.5t11 4.5h8q92 0 166.5 29t108.5 77q3 6 13 6h18q6 0 12 -6q33 -47 108.5 -76.5t167.5 -29.5h8q16 0 16 -16v-288h-2zM592 256q16 0 16 16t-16 16h-64v130
q41 6 68.5 37t27.5 73q0 47 -32.5 79.5t-79.5 32.5t-79.5 -32.5t-32.5 -79.5q0 -38 22.5 -67t57.5 -40v-285q0 -10 7 -17t17 -7t17 7t7 17v40h64q16 0 16 16t-16 16h-64v48h64zM448 528q0 26 19 45t45 19t45 -19t19 -45t-19 -45t-45 -19t-45 19t-19 45z" />
    <glyph glyph-name="texts-o" unicode="&#xe63f;" 
d="M669 794l-78 73l27 -11h-554l40 40v-916l-40 39h132v-39h-132v916h554l78 -73zM216 817v-422h-40v442h582l182 -170v-588h-40v580l6 -15l-169 159l13 -6h-554l20 20v0zM900 0v40h39v-159h-763v478h39v-458l-19 19h724l-20 -19v99v0zM749 794v25l9 3l17 -16v-147l-26 26
h156l21 -19l-3 -7h-28l-146 135v0zM934 659h-185v171zM683 303q8 0 14 6t6 14t-6 14t-14 6h-263q-8 0 -14 -6t-6 -14t6 -14t14 -6h263zM532 198q0 -8 5.5 -14t14 -6t14 5.5t5.5 14.5v263q0 8 -5.5 14t-14 6t-14 -6t-5.5 -14v-263z" />
    <glyph glyph-name="set-c-o" unicode="&#xe641;" 
d="M514 -124q-103 0 -197 40q-91 39 -161.5 109t-108.5 161q-40 95 -40 198t40 198q38 91 108.5 161t161.5 109q94 40 197 40t198 -40q91 -39 161 -109t109 -161q40 -95 40 -198t-40 -198q-39 -91 -109 -161t-161 -109q-95 -40 -198 -40zM514.5 834q-91.5 0 -175 -36
t-143.5 -96t-95.5 -143.5t-35.5 -174.5t35.5 -174.5t95.5 -143.5t143.5 -96t175 -36t174.5 36t143 96t96 143.5t36 174.5t-36 174.5t-96 143.5t-143 96t-174.5 36zM443 640q77 0 131.5 -54t54.5 -131q0 -32 -11 -62l-6 -17l140 -140q19 -18 19 -44.5t-18.5 -45t-45 -18.5
t-45.5 18l-140 140l-16 -6q-30 -10 -63 -10q-76 0 -130.5 54t-54.5 131q0 33 11 63l121 -121l111 111l-121 121q31 11 63 11zM443 668q-44 0 -84 -17l-13 -6v0q-3 -1 -4 -4q-3 -2 -2.5 -6t3.5 -8v0l119 -119l-72 -72l-116 117h-1v0v0q-4 4 -9 4v0v0q-5 0 -9 -4q-3 -2 -3 -6
v2v0v0v0l-4 -9q-18 -41 -18 -85q0 -88 62.5 -150.5t150.5 -62.5q37 0 72 12l128 -127q27 -27 64 -27v0q38 0 65 26.5t27 64.5t-27 65l-128 127q13 35 13 72q0 88 -62.5 150.5t-151.5 62.5z" />
    <glyph glyph-name="box-c-o" unicode="&#xe643;" 
d="M512 892q-104 0 -198 -40t-162.5 -108t-108.5 -162.5t-40 -197.5t40 -197.5t108.5 -162.5t162.5 -108t198 -40t198 40t162.5 108t108.5 162.5t40 197.5t-40 197.5t-108.5 162.5t-162.5 108t-198 40zM512 -75q-93 0 -178 36.5t-146.5 98t-98 146.5t-36.5 178t36.5 178
t98 146.5t146.5 98t178 36.5t178 -36.5t146.5 -98t97.5 -146.5t36 -178t-36 -178t-97.5 -146.5t-146.5 -98t-178 -36.5zM282 505v-242l241 -120l241 120v242l-241 -81zM322 452l161 -54v-185l-161 85v154zM724 452v-165l-201 -96v193zM282 545l241 -81l241 81l-241 80z
M523 505l-130 42l130 43l152 -43z" />
    <glyph glyph-name="4block-o" unicode="&#xe644;" 
d="M216 762h165q26 0 44 -18t18 -43v-184q0 -25 -18 -43t-44 -18h-165q-25 0 -43.5 18t-18.5 43v184q0 25 18.5 43t43.5 18zM113 517q0 -42 30 -72t73 -30h165q43 0 73 30t30 72v184q0 42 -30 72t-73 30h-165q-43 0 -73 -30t-30 -72v-184zM649 762h165q25 0 43 -18t18 -43
v-184q0 -25 -18 -43t-43 -18h-165q-26 0 -44 18t-18 43v184q0 25 18 43t44 18zM546 517q0 -42 30 -72t73 -30h165q42 0 72.5 30t30.5 72v184q0 42 -30.5 72t-72.5 30h-165q-43 0 -73 -30t-30 -72v-184zM216 312h165q26 0 44 -18t18 -43v-184q0 -25 -18 -43t-44 -18h-165
q-25 0 -43.5 18t-18.5 43v184q0 25 18.5 43t43.5 18zM113 67q0 -42 30 -72t73 -30h165q43 0 73 30t30 72v184q0 42 -30 72t-73 30h-165q-43 0 -73 -30t-30 -72v-184zM812 6h-163q-26 0 -44 18t-18 43v184q0 25 18 43t44 18h165q25 0 43 -17.5t18 -43.5v-184q0 -8 6 -14
t15 -6t15 6t6 14v184q0 42 -30.5 72t-72.5 30h-165q-43 0 -73 -30t-30 -72v-184q0 -42 30 -72t73 -30h164q9 0 15 6t6 14.5t-6 14.5t-14 6h-2zM812 6z" />
    <glyph glyph-name="www" unicode="&#xe645;" 
d="M317 457h37l-65 -215h-32q-44 147 -45 153q-3 7 -3 23h-1q0 -7 -3 -23q-3 -6 -48 -153h-32l-63 215h38q33 -129 38 -148l1 -3q2 -13 2 -21h1q0 10 4 24q3 7 45 148h35q39 -141 42 -148q4 -13 4 -24h1q0 8 2 21l1 1v2q1 3 5.5 19.5t15 54t20.5 74.5zM615 457h38l-66 -215
h-32q-43 147 -45 153q-3 7 -3 23h-1q0 -7 -3 -23q-3 -6 -47 -153h-33l-62 215h37q34 -129 39 -148v-2l1 -1q2 -13 2 -21v0q0 10 4 24q3 7 45 148h35q39 -141 42 -148q4 -13 4 -24h1q0 8 2 21l1 3q1 3 41 148zM914 457h37l-65 -215h-32q-44 147 -45 153q-3 7 -3 23h-1
q0 -7 -3 -23q-3 -6 -48 -153h-32l-63 215h38q33 -129 38 -148q0 -1 1 -2v-1q2 -13 2 -21h1q0 10 4 24q3 7 45 148h35q39 -141 42 -148q4 -13 4 -24h1q0 8 2 21l1 3q1 3 5.5 19.5t15 54t20.5 74.5zM164 496q43 103 136.5 166.5t208.5 63.5t208.5 -63.5t136.5 -166.5h45
q-44 121 -150.5 196.5t-239.5 75.5t-239 -75.5t-151 -196.5h45zM850 199q-45 -99 -137 -160t-204 -61t-204.5 61t-136.5 160h-46q46 -117 151.5 -190t235.5 -73t235.5 73t151.5 190h-46z" />
    <glyph glyph-name="cloudapp-o" unicode="&#xe647;" 
d="M887 196l-85 86l85 85l86 -85zM853 282l34 -35l35 35l-35 34zM325 435q7 94 75.5 158t162.5 64v-17q-87 0 -151 -59.5t-71 -145.5h-16zM835 401q1 14 1 17q0 113 -80 193t-193 80q-99 0 -174 -63t-94 -159l-6 -51h-16q-71 0 -121 -42.5t-50 -102.5t50 -102.5t121 -42.5
h341v-34h-341q-85 0 -145 52.5t-60 126.5q0 71 55 122t135 57q12 116 99.5 194.5t205.5 78.5q127 0 217 -90t90 -217v-17h-35zM785 213h-136v137h136v-137zM751 316h-68v-69h68v69zM785 43h-136v136h136v-136zM751 145h-68v-68h68v68zM956 43h-137v136h137v-136zM922 145
h-69v-68h69v68z" />
    <glyph glyph-name="cloudmachine-o" unicode="&#xe648;" 
d="M766 -61h-541q-75 0 -128 53t-53 128t53.5 128t127.5 53q8 0 24 -1q-3 22 -3 40q0 91 65 156t157 65q88 0 152 -60.5t69 -147.5q37 14 77 14q89 0 151.5 -62.5t62.5 -151t-62.5 -151.5t-151.5 -63v0zM225 260q-58 0 -99 -41t-41 -99t41 -99t99 -41h541q72 0 122.5 51
t50.5 122.5t-50.5 122t-122.5 50.5q-47 0 -87 -24q-12 -7 -22 1q-11 6 -10 20q1 4 1 17q0 75 -53 128t-127.5 53t-127.5 -53.5t-53 -127.5q0 -31 10 -61q4 -12 -5 -21t-21 -5q-24 7 -46 7zM960 361q-9 0 -15 6t-6 15v386q0 6 -5 6h-440q-6 0 -6 -6v-135q0 -9 -6 -14.5
t-14.5 -5.5t-14.5 5.5t-6 14.5v135q0 19 14 33t33 14h440q19 0 32.5 -14t13.5 -33v-386q0 -9 -5.5 -15t-14.5 -6zM766 -61h-541q-75 0 -128 53t-53 128t53.5 128t127.5 53q8 0 24 -1q-3 22 -3 40q0 91 65 156t157 65q88 0 152 -60.5t69 -147.5q37 14 77 14q89 0 151.5 -62.5
t62.5 -151t-62.5 -151.5t-151.5 -63v0zM225 260q-58 0 -99 -41t-41 -99t41 -99t99 -41h541q72 0 122.5 51t50.5 122.5t-50.5 122t-122.5 50.5q-47 0 -87 -24q-12 -7 -22 1q-11 6 -10 20q1 4 1 17q0 75 -53 128t-127.5 53t-127.5 -53.5t-53 -127.5q0 -31 10 -61q4 -12 -5 -21
t-21 -5q-24 7 -46 7zM950 613h-482q-9 0 -15 5.5t-6 14.5t6 15t15 6h482q8 0 14 -6t6 -15t-6 -14.5t-14 -5.5zM959 458h-231q-8 0 -14 6t-6 15t6 14.5t14 5.5h231q9 0 15 -5.5t6 -14.5t-6 -15t-15 -6zM894 690h-71q-8 0 -14 6t-6 14.5t6 14.5t14 6h71q8 0 14 -6t6 -14.5
t-6 -14.5t-14 -6zM894 538h-71q-8 0 -14 5.5t-6 14.5t6 15t14 6h71q8 0 14 -6t6 -15t-6 -14.5t-14 -5.5z" />
    <glyph glyph-name="add-s-o" unicode="&#xe649;" 
d="M32 864h959v-15h-959v15zM977 864h15v-960h-15v960zM200 396h623v-24h-623v24zM505 705h24v-640h-24v640zM32 -81h959v-15h-959v15zM32 864h15v-960h-15v960z" />
    <glyph glyph-name="file-pdf-s" unicode="&#xe67b;" 
d="M682 833h-434q-32 0 -55 -23t-23 -56v-321v-416q0 -33 23 -56t55 -23h528q32 0 55 23t23 56v643zM322 295h-36v-75h-49v215h90q77 -2 80 -68q1 -73 -85 -72v0zM503 220h-70v215h67q116 -1 117 -106q4 -113 -114 -109zM796 394h-106v-51h92v-39h-92v-84h-48v215h154v-41v0
zM682 662v127l126 -127h-126v0zM499 394h-17v-136h17q67 0 67 70q-2 66 -67 66zM318 397h-32v-65h32q38 1 39 33q-1 31 -39 32v0z" />
    <glyph glyph-name="find" unicode="&#xe62d;" 
d="M951 -55q-11 -11 -27 -11t-27 11l-120 120q-61 -48 -139 -48q-93 0 -159.5 66.5t-66.5 160t66.5 160t160 66.5t160 -66.5t66.5 -159.5q0 -67 -37 -123l123 -122q11 -11 11 -27t-11 -27v0zM638.5 93q62.5 0 106.5 44t44 106.5t-44 106.5t-106.5 44t-106.5 -44t-44 -106.5
t44 -106.5t106.5 -44zM735 758h-597v-687h231v-76h-237q-29 0 -49.5 20.5t-20.5 49.5v699q0 29 20.5 49.5t49.5 20.5h609q29 0 49.5 -20.5t20.5 -49.5v-263h-76v257zM336 180h-92q-15 0 -26.5 11t-11.5 27t11.5 27t26.5 11h92q16 0 27 -11t11 -27t-11 -27t-27 -11z
M206 599.5q0 15.5 11.5 27t26.5 11.5h341q16 0 27 -11.5t11 -27t-11 -26.5t-27 -11h-341q-15 0 -26.5 11t-11.5 26.5zM206 402.5q0 15.5 11.5 27t26.5 11.5h135q15 0 26 -11.5t11 -27t-11 -26.5t-26 -11h-135q-15 0 -26.5 11t-11.5 26.5z" />
    <glyph glyph-name="verify" unicode="&#xe67d;" 
d="M499 -63q3 0 8 -1.5t9 -1.5q10 0 16 3q76 22 149 70q68 47 106 99q44 60 70 116q30 65 39 122q6 36 13 116q6 60 -3 99q-5 22 -20 37q-13 13 -36 13q-7 0 -10 3q-1 2 -5.5 4.5t-7.5 5.5l-17 17q-11 22 -13 33q-7 26 -7 53q0 23 -16 40q-13 13 -33 23q-17 8 -86 29
q-54 17 -146 17q-74 0 -145 -17q-28 -6 -87 -29q-16 -7 -33 -23q-16 -23 -16 -40q0 -20 -7 -53q-5 -25 -13 -33q-6 -11 -17 -17q-6 -3 -13 -10q-3 -3 -10 -3q-23 0 -36 -13q-16 -16 -20 -37q-9 -34 -3 -99q1 -17 6 -56t7 -60q9 -57 40 -122q25 -56 69 -116q38 -52 106 -99
q95 -53 162 -70zM182 549h13q6 0 26 10q21 11 33 27q18 17 27 49q13 47 13 83q1 1 8.5 7t11.5 10q11 7 69 23q61 16 133 16v-390h327q-6 -40 -26 -112q-23 -64 -56 -110q-39 -60 -100 -102q-58 -44 -145 -70v391h-328q-2 13 -5 41t-5 41v63z" />
    <glyph glyph-name="person-o" unicode="&#xe63d;" 
d="M515 -74q-93 0 -177.5 36.5t-146 98t-98 146t-36.5 177.5t36.5 177.5t98 146t146 98t177.5 36.5t178 -36.5t146 -98t97.5 -146t36.5 -177.5t-36.5 -177.5t-98 -146t-146 -98t-177.5 -36.5zM515 810q-116 0 -214 -57t-155 -155t-57 -214t57 -214t155 -155t214 -57t214 57
t155.5 155t57.5 214t-57.5 214t-155.5 155t-214 57zM515 386q-65 0 -111 46t-46 111t46 110.5t110.5 45.5t110.5 -46t46 -110.5t-46 -110.5t-110 -46zM515.5 672q-53.5 0 -91.5 -38t-38 -91.5t37.5 -91.5t91.5 -38q53 0 91 38t38 91.5t-37.5 91.5t-91 38zM734 128h-438
q-5 0 -9 4t-4 9q0 96 68 164t164 68q95 0 163 -67t69 -162q1 -6 -2 -10.5t-9 -5.5h-2zM310 155h409q-5 81 -64 136.5t-140 55.5t-140 -56t-65 -136z" />
    <glyph glyph-name="computer-o" unicode="&#xe64c;" 
d="M515 -74q-93 0 -177.5 36.5t-146 98t-98 146t-36.5 177.5t36.5 177.5t98 146t146 98t177.5 36.5t178 -36.5t146 -98t97.5 -146t36.5 -177.5t-36.5 -177.5t-98 -146t-146 -98t-177.5 -36.5zM515 810q-116 0 -214 -57t-155 -155t-57 -214t57 -214t155 -155t214 -57t214 57
t155.5 155t57.5 214t-57.5 214t-155.5 155t-214 57zM722 643h-409q-22 0 -37 -15.5t-15 -37.5v-297q0 -22 15 -37.5t37 -15.5h189v-67h-108q-6 0 -11 -4.5t-5 -11.5t5 -12t11 -5h244q7 0 11.5 5t4.5 12t-4.5 11.5t-11.5 4.5h-105v67h189q21 0 36.5 15.5t15.5 37.5v297
q1 22 -14.5 37.5t-37.5 15.5zM743 293q0 -9 -6 -15t-14 -6h-410q-8 0 -14 6t-6 15v36h450v-36zM743 362h-451v228q0 8 6 14.5t14 6.5h410q8 0 14 -6t6 -15z" />
    <glyph glyph-name="members-o" unicode="&#xe64d;" 
d="M512 -74q-93 0 -177.5 36.5t-146 98t-98 146t-36.5 177.5t36.5 177.5t98 146t146 98t177.5 36.5t177.5 -36.5t146 -98t98 -146t36.5 -177.5t-36.5 -177.5t-98 -146t-146 -98t-177.5 -36.5zM512 810q-116 0 -214 -57t-155 -155t-57 -214t57 -214t155 -155t214 -57t214 57
t155 155t57 214t-57 214t-155 155t-214 57zM731 408q28 0 48 19.5t20 47.5t-20 48t-48 20t-47.5 -20t-19.5 -48q0 -9 2 -19l-67 -30q-10 23 -30.5 38t-45.5 18v71q25 3 41.5 22t16.5 45q0 28 -19.5 48t-47.5 20q-29 0 -49 -20t-20 -48q0 -26 17 -45t41 -23v-71
q-26 -2 -46.5 -18t-30.5 -40l-69 24q4 12 4 23q0 28 -20 48t-48 20t-48 -19.5t-20 -47.5t20 -48t48 -20q34 0 54 28l74 -27q-1 -10 -1 -15q0 -34 22 -60l-67 -59q-16 10 -35 10q-28 0 -47.5 -20t-19.5 -48t19.5 -48t48 -20t48 20t19.5 48q0 26 -17 46l65 57q25 -20 57 -20
q31 0 56 19l63 -63q-14 -18 -14 -41q0 -28 20 -48t48 -20t48 20t20 48t-20 48t-48 20q-22 0 -40 -13l-63 62q23 26 23 62q0 9 -1 18l69 31q20 -30 57 -30zM293 423q-20 0 -34 14t-14 34t14 34t34 14t34 -14t14 -34t-14 -34t-34 -14zM465 620q0 19 14.5 33.5t34.5 14.5
t34 -14.5t14 -34t-14 -34t-34 -14.5q-20 1 -34.5 15t-14.5 34zM340 163q-20 0 -34 14t-14 34t14 34.5t34 14.5t34 -14.5t14 -34.5t-14 -34t-34 -14zM734 210q0 -20 -14 -34t-34 -14t-34 14t-14 34t14 34t34 14t34 -14t14 -34zM513 315q-30 0 -52 22t-22 52t22 52t52 22
t52 -22t22 -52t-22 -52t-52 -22zM731 523q20 0 34 -14t14 -34t-14 -34t-34 -14t-34 14t-14 34t14 34t34 14z" />
    <glyph glyph-name="person" unicode="&#xe656;" 
d="M719 167v0v0zM954 214q-4 18 -15.5 29t-27.5 11v0h-2q-13 0 -22 9t-9 22q0 5 3 12q7 16 2 33t-19 28l-2 1l-56 31l-2 1q-9 4 -20 4q-23 0 -38 -16q-16 -16 -26 -17q-10 1 -27 17q-15 16 -38 16q-10 0 -20 -4h-2l-58 -32l-1 -1q-15 -10 -20 -27.5t3 -33.5q2 -7 2 -12
q0 -13 -9 -22t-22 -9h-1q-16 0 -28 -11t-16 -29q-5 -26 -5 -47t5 -47q4 -18 15.5 -29t27.5 -11h1h1q13 0 22 -9t9 -22q0 -5 -2 -12v1v0v-1v0q-8 -16 -3 -33t20 -28l1 -1l55 -30l2 -1q9 -4 20 -4q24 0 39 16q16 18 26 18q11 0 27 -18q16 -17 39 -17v0q11 0 20 4l2 1l57 31
l1 1q15 11 20 28t-2 33q-3 7 -3 12q0 13 9 22t22 9h2v0q16 0 27.5 11t15.5 29q5 26 5 47t-5 47zM557 297zM883 152q-35 -9 -57.5 -37.5t-22.5 -65.5q0 -9 2 -19l-19 -11q-27 23 -61 34q3 -1 7 -2l10 -4h-4q-12 2 -21 2q-29 0 -59 -22q-29 -21 -46 -51l20 53q3 11 3 20
q0 37 -22.5 65.5t-57.5 37.5q-1 9 -1 15t1 15q35 9 57.5 37.5t22.5 65.5q0 9 -2 19l19 11q27 -22 61 -31q-3 1 -7 2l-10 3h3q13 -2 21 -2q28 0 58 21q28 20 46 50l-19 -53q-2 -11 -2 -20q0 -37 22.5 -65.5t57.5 -37.5q1 -9 1 -15t-1 -15zM718.5 255q-36.5 0 -62 -26
t-25.5 -62t25.5 -61.5t62 -25.5t62 25.5t25.5 61.5t-25.5 62t-62 26zM718.5 140q-11.5 0 -19.5 8t-8 19.5t8 19.5t19.5 8t19.5 -8t8 -19.5t-8 -19.5t-19.5 -8zM445 752q84 0 124 -56q38 -54 38 -153q0 -20 -3 -40q-2 -16 7.5 -29.5t26 -15.5t29.5 7.5t16 26.5q4 24 4 52
q0 124 -53 198q-31 44 -78 66q-49 24 -111 24q-64 0 -113 -24q-47 -22 -77 -66q-52 -73 -52 -199q0 -116 71 -207q51 -66 124 -102q-60 26 -102 34.5t-61 4.5t-42 -15q-121 -60 -127 -135q-4 -34 18 -65q19 -27 58 -49q76 -43 234 -72q4 -1 8 -1q14 0 25 9t14 24
q3 16 -6.5 29.5t-25.5 16.5q-145 27 -209 63q-38 22 -37 38q1 12 23 31.5t61 38.5q37 19 76.5 30t60.5 11q17 0 28.5 11t11.5 27l2 33v2q0 22 -19 33q-25 16 -52 51q-55 71 -55 159q0 100 38 153q39 56 125 56z" />
    <glyph glyph-name="tips-c-o" unicode="&#xe67e;" 
d="M0 384q0 105 41 199q60 142 186 227q-2 2 6 8t25.5 15t40 18.5t51.5 18.5t58 15h-10q24 9 98 11h14h2q104 0 199 -40.5t163 -109.5q108 -108 139 -257v7q8 -20 11 -95v-17v-2q0 -105 -42 -200q-60 -139 -186 -225q3 -1 -5 -7t-25.5 -15t-39.5 -18t-51.5 -18.5
t-57.5 -15.5h9q-24 -9 -98 -11h-15h-1h-2q-105 0 -200 42q-139 59 -224 185q-2 -2 -8 6.5t-15 26t-18.5 40t-18.5 52t-15 57.5v-10q-9 24 -11 97v14v2v0zM128 384q0 -78 30 -149q46 -107 140 -171q-2 -1 4.5 -5.5t19.5 -11t30 -13.5t39 -14t43 -12h-7q23 -8 84 -8h1
q78 0 149 30q107 46 171 140q1 -2 5.5 4.5t11 19.5t13.5 30t14 39t12 43v-7q8 23 8 84v1v3q0 103 -52 192q-69 117 -197 165q2 2 -16 8t-51 11t-65 5h-3h-3q-103 0 -191 -52q-118 -69 -166 -197q-3 2 -8.5 -16t-10.5 -51t-5 -65v-3v0zM364 577q71 40 162 40q70 0 115.5 -37
t45.5 -91q0 -38 -11 -60q-20 -38 -57 -58l-26 -12q-11 -4 -22 -7h8q-6 -7 -54 -16l62 19q-1 -1 -3 -1l-11 -6q-6 -3 -9 -9v0q-1 -2 -1 -4v-8v-2v-17h-128v40q0 26 7 40.5t30 26.5l44 24l8 4q7 4 9 5q3 2 8 5q8 6 13 15l-2 -1q1 2 1 4v-1v-1v4q0 25 -54 25q-52 0 -101 -32z
M417 211.5q0 34.5 22 54t60 19.5q37 0 59.5 -19.5t22.5 -54t-22.5 -53.5t-59.5 -19q-38 0 -60 19t-22 53.5z" />
    <glyph glyph-name="selected-t" unicode="&#xe683;" 
d="M62 -63l900 -3v900l-900 -897v0zM864 297l-225 -222q-6 -6 -11.5 -6t-11.5 6l-126 126q-3 3 -3 11.5t3 11.5l30 31q3 2 11.5 2t11.5 -2l87 -88l183 183q6 6 11.5 6t10.5 -6l31 -31q3 -3 3 -11q0 -6 -5 -11z" />
    <glyph glyph-name="block" unicode="&#xe98f;" 
d="M881 489q11 0 18.5 -7.5t7.5 -18.5v-395q0 -11 -7.5 -18.5t-18.5 -7.5h-527q-11 0 -18.5 7.5t-7.5 18.5v395q0 11 7.5 18.5t18.5 7.5h236q11 0 19 8t8 19t-8 18.5t-19 7.5h-236q-33 0 -56 -23t-23 -56v-395q0 -33 23 -56t56 -23h527q32 0 55.5 23t23.5 56v395
q0 33 -23.5 56t-55.5 23h-52q-10 0 -18 -7.5t-8 -18.5t8 -19t18 -8h52zM143 279q-11 0 -18.5 7.5t-7.5 18.5v395q0 11 7.5 18.5t18.5 7.5h527q11 0 18.5 -7.5t7.5 -18.5v-395q0 -11 -7.5 -18.5t-18.5 -7.5h-236q-11 0 -19 -8t-8 -19t8 -18.5t19 -7.5h236q33 0 56 23t23 56
v395q0 33 -23 56t-56 23h-527q-32 0 -55.5 -23t-23.5 -56v-395q0 -33 23.5 -56t55.5 -23h52q10 0 18 7.5t8 18.5t-8 19t-18 8h-52z" />
    <glyph glyph-name="log-o" unicode="&#xe64f;" 
d="M742 453h-436q-13 0 -22 -9t-9 -22q0 -12 9 -21t22 -9h436q13 0 22 9t9 21q0 13 -9 22t-22 9zM742 231h-436q-13 0 -22 -9t-9 -22t9 -21.5t22 -8.5h436q13 0 22 8.5t9 21.5t-9 22t-22 9zM903 644q-2 2 -11 10t-28 25.5t-36 33.5q-98 90 -112 104l-9 9h-516
q-20 0 -34 -14.5t-14 -33.5v-797q0 -20 14 -34t34 -14h673q20 0 34 14t14 34v654zM787 668q32 -30 45 -42h-128v118q22 -21 83 -76zM204 -5v769h439v-169q0 -12 8.5 -21.5t21.5 -9.5h178v-569h-647z" />
    <glyph glyph-name="mislog-o" unicode="&#xe650;" 
d="M903 644q-2 2 -11 10t-28 25.5t-36 33.5q-98 90 -112 104l-9 9h-516q-20 0 -34 -14.5t-14 -33.5v-797q0 -20 14 -34t34 -14h673q20 0 34 14t14 34v654zM787 668q32 -30 45 -42h-128v118q22 -21 83 -76zM204 -5v769h439v-169q0 -12 8.5 -21.5t21.5 -9.5h178v-569h-647z
M308 428q10 59 61.5 91t132.5 32q83 0 137 -33t54 -83q0 -24 -15 -48q-15 -23 -75 -60q-45 -29 -56 -45q-12 -17 -13 -58h-70q0 32 3 49q4 16 15 30q13 17 28 28q10 9 48 33q39 23 50 39q10 14 10 29q0 31 -33 53q-35 23 -82 23q-98 0 -119 -85zM543 121h-84v60h84v-60z" />
    <glyph glyph-name="yongyouyun-r" unicode="&#xe685;" horiz-adv-x="2457" 
d="M752 208q18 9 18 35v567q0 30 -13 39.5t-38 9.5h-606q-16 0 -26.5 -8.5t-10.5 -26.5v-293q0 -182 -41 -305q0 -12 4 -16q6 -6 12 -6h78q12 0 27 14q17 35 34 178h168v-139q0 -9 6.5 -13.5t12.5 -4.5h90q5 0 9.5 5t4.5 13v137h166v-98q0 -4 -4 -4h-51q-21 0 -21 -19v-53
q0 -9 6.5 -14.5t14.5 -5.5h145q-1 1 1 1.5t6 2t8 4.5zM209 765h149v-90h-163v69q-1 1 -2 5.5t3.5 10t12.5 5.5zM356 488zM356 488h-163v93h163v-93zM479 765h148q18 0 18 -19v-71h-166v90zM649 488h-168v93h168v-93zM1411 568q10 0 10 -10q0 -30 -84 -125q-39 39 -67 82
q-3 4 -6.5 6t-5.5 2h-3h-106q-13 0 -8 -10q46 -82 116 -156q-48 -41 -83 -55q-25 -8 -39 -8h-23q-18 0 -18 -21v-53q0 -10 3.5 -13t12.5 -3h53q36 0 62 14q52 25 108 72q64 -50 101 -64q16 -10 56 -19q23 -5 46 -5h49q7 0 13 4.5t6 11.5v62q0 14 -15 14h-8q-24 0 -41.5 3
t-23 5t-19.5 8q-36 18 -82 54q146 149 146 251q0 25 -17 37.5t-41 12.5h-383q4 20 8 65h474q7 0 12.5 5.5t5.5 13.5v53q0 7 -5.5 12.5t-12.5 5.5h-465l4 51q2 10 -4 17q-2 3 -5.5 5.5t-6.5 2.5h-3h-78q-14 0 -22 -16q-2 -23 -4 -58h-121q-8 0 -14 -5.5t-6 -12.5v-55
q0 -8 5.5 -13.5t14.5 -5.5h111q-16 -139 -48.5 -275t-85.5 -221q-6 -13 -2 -22q5 -8 15 -8h78q19 0 30 16l2 2q63 108 107 346h307zM1745 726h633q8 0 14 6t6 14v56q0 8 -5.5 14t-14.5 6h-633q-8 0 -14.5 -5.5t-6.5 -14.5v-53q0 -10 6 -16.5t15 -6.5zM1722 527h111l-98 -247
q-2 -5 -4.5 -12.5t-2.5 -22t7 -25.5q15 -24 63 -24h508q50 0 74 26q18 25 12 62l-43 151q-5 15 -16 19h-131q-21 0 -21 -19v-51q0 -9 6.5 -14.5t14.5 -5.5h43l18 -70h-381q-10 0 -6 8l86 225h438q8 0 14.5 6t6.5 15v53q0 8 -6 14.5t-15 6.5h-678q-8 0 -14 -6t-6 -15v-53
q0 -8 5.5 -14.5t14.5 -6.5zM2200 69q-9 0 -9 -9v-92q-23 -5 -36 -1t-13 14v77q0 7 -6 7h-45v-84q0 -34 38 -44.5t107 7.5q9 4 9 12v106zM829 67h-38q-10 0 -13 -7q-1 0 -8.5 -14.5t-14.5 -28.5l-7 -14q-2 -3 -4.5 -3t-4.5 3q-24 53 -26 55q-3 9 -15 9h-36l-3 -2
q0 -3 58 -125q-29 -56 -29 -58q-3 -10 6 -10h41q96 188 99 190q0 5 -5 5zM1325 67h-39q-9 0 -12 -7q-1 0 -8.5 -14.5t-15 -28.5l-7.5 -14q-1 -3 -4 -3t-4 3q-25 53 -27 55q-2 9 -14 9h-37l-2 -2q0 -3 57 -125q-28 -56 -28 -58q-4 -10 6 -10h41q96 188 98 190q0 5 -4 5z
M1462 52q-21 19 -61 19q-39 0 -60 -21q-20 -17 -20 -47t20 -47q22 -18 62 -18q38 0 61 20q21 18 21 47q-4 31 -23 47zM1427 -7q-20 -37 -45 -25q-27 12 -6 51q20 37 45 25q24 -15 6 -51zM967 52q-22 19 -62 19q-39 0 -59 -21q-21 -17 -21 -47t21 -47q21 -18 61 -18
q38 0 62 20q20 18 20 47q-3 31 -22 47zM932 -7q-20 -36 -45 -25q-27 12 -6 51q20 37 45 25q24 -15 6 -51zM1008 60q-9 -4 -9 -12v-106h45q9 0 9 8v92q23 6 36 1.5t13 -15.5v-78q0 -6 6 -6h45v84q0 30 -38 40t-107 -8zM1604 67q-9 0 -9 -9v-92q-23 -5 -36 -1t-13 13v78
q0 6 -6 6h-45v-84q0 -33 38 -43.5t107 7.5q9 4 9 12v106zM2058 50q-21 19 -59 19q-36 0 -57 -19q-21 -20 -21 -45q0 -28 21 -45q21 -18 59 -18q39 0 57 18q21 21 21 45q0 28 -21 45zM2025 -7q-18 -34 -43 -25q-25 10 -6 49q20 36 45 25q23 -13 4 -49zM1858 122v-182h43
q6 0 6 6v182h-43q-6 0 -6 -6zM2376 128q-9 0 -9 -8v-53q-16 4 -28 4q-38 0 -62 -21q-22 -19 -22 -47q0 -29 20 -49q24 -21 62 -21q12 0 28 5v-5h48q8 0 8 9v186h-45zM2370 -5l-3 -4q-19 -36 -47 -27q-27 12 -6 51q18 37 47 27q4 -2 9 -6q6 -6 6 -17q0 -12 -6 -24zM1831 52
q-20 17 -59 15q-40 -4 -62 -23q-18 -18 -18 -39q-4 -30 16 -47q22 -18 61 -18t60 20q4 4 6 8l-12 8q-23 -20 -49 -20q-19 1 -27 11t-6 24q0 22 22 55q8 10 23 10q6 0 10 -4t4 -10q0 -10 -2 -14h45q3 11 -8 22q-1 -1 -4 2z" />
  </font>
</defs>
</svg>
